<?xml version="1.0" encoding="utf-8"?>
<!-- Generator: Adobe Illustrator 15.0.0, SVG Export Plug-In  -->
<!DOCTYPE svg PUBLIC "-//W3C//DTD SVG 1.1//EN" "http://www.w3.org/Graphics/SVG/1.1/DTD/svg11.dtd" [
	<!ENTITY ns_flows "http://ns.adobe.com/Flows/1.0/">
]>
<svg version="1.1"
	 xmlns="http://www.w3.org/2000/svg" xmlns:xlink="http://www.w3.org/1999/xlink" xmlns:a="http://ns.adobe.com/AdobeSVGViewerExtensions/3.0/"
	 x="0px" y="0px" width="93px" height="48px" viewBox="0 0 93 48" enable-background="new 0 0 93 48" xml:space="preserve">
<defs>
</defs>
<path fill="#191919" d="M7.396,36.393H4.874V36.28c0.484-0.1,0.727-0.37,0.727-0.784c0-0.186-0.072-0.498-0.229-0.926
	c-0.114-0.327-0.228-0.612-0.327-0.94H1.838l-1.082,2.95C0.343,36.537,0,36.238,0,35.824c0-0.128,0.029-0.256,0.086-0.413
	l3.064-8.208h1.168L7.396,36.393z M4.788,32.789L3.534,29.07l-1.368,3.719H4.788z"/>
<path fill="#191919" d="M13.637,36.394H8.365v-9.191h0.356c0.641,0,0.969,0.314,0.969,0.941v7.21h2.721
	c0.314,0,0.556-0.072,0.741-0.2c0.129-0.1,0.242-0.285,0.342-0.57h0.143V36.394z"/>
<path fill="#191919" d="M19.208,35.923v0.015c-0.584,0.37-1.268,0.556-2.052,0.556c-1.083,0-2.052-0.413-2.921-1.225l0.598-0.955
	c0.784,0.67,1.568,0.997,2.323,0.997c0.485,0,0.898-0.128,1.254-0.37c0.385-0.271,0.584-0.643,0.584-1.112
	c0-0.57-0.385-1.012-1.169-1.325l-2.194-0.812c-0.784-0.442-1.168-1.098-1.168-1.995c0-1.596,0.997-2.494,2.593-2.494h2.708
	l0.256,1.981l-0.128,0.07c-0.499-0.726-1.24-1.083-2.237-1.083c-1.154,0-1.738,0.442-1.738,1.312c0,0.484,0.398,0.869,1.182,1.154
	c1.325,0.471,2.052,0.756,2.209,0.855c0.783,0.484,1.182,1.211,1.182,2.179C20.491,34.57,20.063,35.326,19.208,35.923"/>
<path fill="#191919" d="M28.485,36.393h-2.523V36.28c0.485-0.1,0.727-0.37,0.727-0.784c0-0.186-0.071-0.498-0.228-0.926
	c-0.114-0.327-0.228-0.612-0.327-0.94h-3.207l-1.083,2.95c-0.413-0.043-0.755-0.342-0.755-0.756c0-0.128,0.029-0.256,0.086-0.413
	l3.063-8.208h1.169L28.485,36.393z M25.877,32.789l-1.254-3.719l-1.368,3.719H25.877z"/>
<path fill="#191919" d="M34.726,36.394h-5.272v-9.191h0.356c0.641,0,0.969,0.314,0.969,0.941v7.21h2.722
	c0.313,0,0.556-0.072,0.74-0.2c0.129-0.1,0.243-0.285,0.343-0.57h0.142V36.394z"/>
<path fill="#191919" d="M42.521,36.393h-2.522V36.28c0.484-0.1,0.726-0.37,0.726-0.784c0-0.186-0.071-0.498-0.228-0.926
	c-0.114-0.327-0.228-0.612-0.327-0.94h-3.207l-1.082,2.95c-0.414-0.043-0.756-0.342-0.756-0.756c0-0.128,0.029-0.256,0.086-0.413
	l3.064-8.208h1.168L42.521,36.393z M39.913,32.789l-1.254-3.719l-1.368,3.719H39.913z"/>
<path fill="#191919" d="M52.438,35.496c0,0.627-0.299,0.94-0.898,0.94h-0.44V29.71l-2.58,6.684h-1.125l-2.551-6.441v6.441h-1.768
	V36.28c0.556-0.186,0.741-0.428,0.741-1.012v-6.996c0-0.527-0.256-0.855-0.755-0.955v-0.128h2.022l3.094,7.181l2.806-7.167h1.454
	V35.496z"/>
<path fill="#191919" d="M63.88,36.394H62.54V32.19l-3.89-0.014v4.218h-1.339v-9.191h0.398c0.627,0,0.94,0.3,0.94,0.884v3.249h3.89
	v-3.191c0-0.399-0.299-0.756-0.712-0.827v-0.114h2.053V36.394z"/>
<path fill="#191919" d="M71.987,34.968c-0.755,1.041-1.738,1.554-2.963,1.554c-1.212,0-2.195-0.527-2.95-1.567
	c-0.67-0.926-1.012-2.023-1.012-3.291c0-1.24,0.342-2.295,1.026-3.192c0.756-0.982,1.724-1.468,2.936-1.468
	c1.211,0,2.194,0.485,2.949,1.454c0.684,0.896,1.025,1.966,1.025,3.206C72.999,32.917,72.657,34.014,71.987,34.968 M70.919,29.327
	c-0.471-0.842-1.112-1.269-1.896-1.269c-0.784,0-1.411,0.427-1.881,1.269c-0.385,0.697-0.585,1.481-0.585,2.337
	c0,1.054,0.243,1.952,0.713,2.679c0.527,0.783,1.126,1.182,1.767,1.182c0.799,0,1.426-0.47,1.896-1.41
	c0.385-0.756,0.57-1.567,0.57-2.45C71.503,30.808,71.303,30.024,70.919,29.327"/>
<path fill="#191919" d="M79.654,28.201h-2.593v7.039c0,0.599,0.241,0.94,0.74,1.04v0.114H75.72v-8.193h-2.465v-0.997h6.398V28.201z"
	/>
<path fill="#191919" d="M86.251,36.394h-4.203c-0.643,0-0.955-0.313-0.955-0.926v-7.226c0-0.47-0.242-0.783-0.741-0.926v-0.128
	h5.899v1.596h-0.114c-0.144-0.499-0.471-0.741-0.969-0.741h-2.75v3.292h2.863v0.826h-2.863v3.007c0,0.257,0.142,0.385,0.412,0.385
	h3.421V36.394z"/>
<path fill="#191919" d="M92.848,36.394h-5.271v-9.191h0.355c0.642,0,0.97,0.314,0.97,0.941v7.21h2.722c0.313,0,0.556-0.072,0.74-0.2
	c0.129-0.1,0.242-0.285,0.343-0.57h0.142V36.394z"/>
<path fill="#A3A3A3" d="M29.794,47.02c-0.27,0.007-0.551-0.046-0.719-0.099c-0.175-0.053-0.607-0.298-1.293-0.858
	c-0.314-0.021-0.803-0.165-1.157-0.568c-0.342-0.377-0.584-0.944-0.584-1.598c0-1.222,0.708-2.318,1.91-2.318
	c0.944,0,1.792,0.878,1.792,2.212c0,1.169-0.612,1.923-1.275,2.166c0.348,0.284,0.848,0.647,1.37,0.926L29.794,47.02z M28.131,45.66
	c0.05,0.04,0.101,0.086,0.151,0.126c0.45-0.152,0.888-0.753,0.888-1.81c0-1.374-0.584-2.153-1.354-2.153
	c-0.623,0-1.202,0.634-1.202,1.896c0,1.116,0.478,1.929,1.135,2.087L28.131,45.66z"/>
<path fill="#A3A3A3" d="M31.968,46.049c-0.084,0-0.202-0.059-0.264-0.125c-0.073-0.093-0.107-0.185-0.135-0.298
	c-0.224,0.179-0.494,0.423-0.663,0.423c-0.398,0-0.674-0.389-0.674-0.805c0-0.324,0.147-0.529,0.455-0.654
	c0.338-0.132,0.748-0.311,0.871-0.43v-0.118c0-0.476-0.191-0.747-0.472-0.747c-0.112,0-0.196,0.053-0.252,0.132
	c-0.074,0.086-0.124,0.232-0.169,0.43c-0.022,0.112-0.084,0.158-0.163,0.158c-0.101,0-0.247-0.132-0.247-0.284
	c0-0.099,0.073-0.171,0.18-0.264c0.157-0.132,0.522-0.389,0.842-0.462c0.169,0,0.337,0.059,0.461,0.178
	c0.197,0.192,0.253,0.462,0.253,0.807v1.228c0,0.298,0.101,0.397,0.196,0.397c0.067,0,0.146-0.034,0.202-0.073l0.056,0.172
	L31.968,46.049z M31.558,44.385c-0.118,0.073-0.388,0.211-0.505,0.277c-0.219,0.119-0.343,0.245-0.343,0.482
	c0,0.344,0.225,0.509,0.399,0.509c0.146-0.008,0.342-0.119,0.449-0.238V44.385z"/>
<path fill="#A3A3A3" d="M34.114,43.864c-0.107-0.389-0.303-0.654-0.579-0.654c-0.213,0-0.364,0.198-0.364,0.456
	c0,0.29,0.224,0.449,0.477,0.574c0.421,0.205,0.708,0.443,0.708,0.899c0,0.6-0.477,0.91-0.927,0.91
	c-0.287,0-0.545-0.125-0.646-0.224c-0.039-0.093-0.09-0.542-0.09-0.78l0.146-0.032c0.101,0.436,0.354,0.818,0.691,0.818
	c0.208,0,0.399-0.185,0.399-0.463c0-0.29-0.163-0.448-0.444-0.6c-0.337-0.186-0.702-0.403-0.702-0.912
	c0-0.462,0.337-0.853,0.854-0.853c0.23-0.006,0.382,0.061,0.5,0.113c0.045,0.151,0.106,0.541,0.123,0.707L34.114,43.864z"/>
<path fill="#A3A3A3" d="M36.148,43.864c-0.107-0.389-0.303-0.654-0.579-0.654c-0.213,0-0.365,0.198-0.365,0.456
	c0,0.29,0.225,0.449,0.478,0.574c0.421,0.205,0.707,0.443,0.707,0.899c0,0.6-0.477,0.91-0.926,0.91
	c-0.287,0-0.545-0.125-0.646-0.224c-0.039-0.093-0.09-0.542-0.09-0.78l0.146-0.032c0.101,0.436,0.354,0.818,0.691,0.818
	c0.208,0,0.399-0.185,0.399-0.463c0-0.29-0.163-0.448-0.444-0.6c-0.337-0.186-0.702-0.403-0.702-0.912
	c0-0.462,0.337-0.853,0.853-0.853c0.231-0.006,0.382,0.061,0.5,0.113c0.045,0.151,0.107,0.541,0.124,0.707L36.148,43.864z"/>
<path fill="#A3A3A3" d="M36.739,45.97v-0.171c0.353-0.04,0.393-0.08,0.393-0.529v-1.367c0-0.401-0.017-0.436-0.354-0.495V43.25
	c0.286-0.054,0.55-0.14,0.798-0.259v2.278c0,0.449,0.039,0.489,0.398,0.529v0.171H36.739z M37.036,42.094
	c0-0.198,0.135-0.344,0.287-0.344c0.157,0,0.281,0.146,0.281,0.344c0,0.178-0.124,0.337-0.287,0.337
	C37.171,42.431,37.036,42.272,37.036,42.094"/>
<path fill="#A3A3A3" d="M41.339,45.97v-0.172c0.331-0.039,0.393-0.066,0.393-0.534v-1.103c0-0.471-0.14-0.768-0.494-0.768
	c-0.202,0-0.416,0.133-0.629,0.345c0.011,0.078,0.017,0.151,0.017,0.276v1.288c0,0.416,0.05,0.456,0.359,0.495v0.172h-1.202v-0.172
	c0.348-0.039,0.399-0.072,0.399-0.508v-1.136c0-0.489-0.146-0.761-0.488-0.761c-0.225,0-0.444,0.18-0.613,0.345v1.552
	c0,0.429,0.045,0.469,0.32,0.508v0.172h-1.185v-0.172c0.371-0.039,0.421-0.079,0.421-0.508v-1.367c0-0.423-0.016-0.456-0.342-0.515
	v-0.152c0.247-0.053,0.534-0.139,0.78-0.271v0.535c0.118-0.092,0.242-0.211,0.41-0.337c0.147-0.104,0.281-0.178,0.461-0.178
	c0.27,0,0.511,0.198,0.623,0.541c0.163-0.146,0.326-0.271,0.467-0.369c0.118-0.093,0.264-0.172,0.421-0.172
	c0.438,0,0.713,0.363,0.713,1.01v1.275c0,0.441,0.045,0.469,0.366,0.508v0.172H41.339z"/>
<polygon fill="#A3A3A3" points="45.542,44.663 44.261,44.663 44.34,44.299 45.625,44.299 "/>
<path fill="#A3A3A3" d="M49.306,43.659c0.556,0.1,0.994,0.391,0.994,1.05c0,0.443-0.208,0.779-0.539,0.997
	c-0.287,0.186-0.657,0.265-1.101,0.265h-1.241v-0.185c0.481-0.04,0.516-0.08,0.516-0.634V42.49c0-0.548-0.021-0.588-0.472-0.627
	v-0.185h1.443c0.422,0,0.668,0.079,0.843,0.224c0.203,0.159,0.314,0.449,0.314,0.754c0,0.626-0.443,0.884-0.758,0.983V43.659z
	 M48.671,43.58c0.618,0,0.876-0.29,0.876-0.846c0-0.448-0.213-0.845-0.747-0.845c-0.14,0-0.264,0.026-0.32,0.065
	c-0.05,0.04-0.073,0.113-0.073,0.331v1.294H48.671z M48.407,45.145c0,0.475,0.107,0.601,0.467,0.601
	c0.461-0.007,0.871-0.283,0.871-0.971c0-0.68-0.394-0.977-1.079-0.977h-0.259V45.145z"/>
<path fill="#A3A3A3" d="M53.39,45.812c-0.124,0.019-0.281,0.059-0.433,0.105c-0.146,0.047-0.286,0.099-0.394,0.132l-0.032-0.039
	v-0.469c-0.131,0.111-0.26,0.23-0.416,0.344c-0.163,0.111-0.281,0.164-0.434,0.164c-0.376,0-0.696-0.271-0.696-0.983v-1.295
	c0-0.35-0.045-0.383-0.186-0.422l-0.157-0.04v-0.152c0.118-0.006,0.253-0.025,0.405-0.046c0.151-0.026,0.303-0.053,0.398-0.073
	c-0.017,0.205-0.017,0.516-0.017,0.965v0.892c0,0.581,0.241,0.739,0.494,0.739c0.202,0,0.416-0.1,0.607-0.317v-1.538
	c0-0.356-0.052-0.396-0.237-0.429l-0.202-0.04v-0.152c0.152-0.006,0.343-0.025,0.506-0.053c0.157-0.02,0.292-0.046,0.376-0.066
	v2.206c0,0.33,0.045,0.376,0.258,0.39l0.158,0.014V45.812z"/>
<path fill="#A3A3A3" d="M54.493,43.705c0.168-0.329,0.409-0.699,0.679-0.699c0.19,0,0.326,0.172,0.326,0.33
	c0,0.132-0.073,0.265-0.181,0.323c-0.066,0.033-0.118,0.027-0.15-0.013c-0.079-0.099-0.146-0.139-0.236-0.139
	c-0.146,0-0.326,0.197-0.45,0.567v1.208c0,0.437,0.028,0.477,0.461,0.517v0.171h-1.292v-0.171c0.35-0.04,0.389-0.08,0.389-0.517
	v-1.366c0-0.437-0.028-0.463-0.35-0.515v-0.146c0.276-0.054,0.523-0.132,0.792-0.271v0.72H54.493z"/>
<path fill="#A3A3A3" d="M58.396,43.25c-0.297,0.053-0.349,0.106-0.5,0.482c-0.141,0.35-0.314,0.897-0.702,1.987
	c-0.376,1.057-0.499,1.434-0.578,1.789c-0.034,0.126-0.102,0.159-0.18,0.159c-0.157,0-0.32-0.159-0.32-0.316
	c0-0.106,0.051-0.165,0.146-0.238c0.175-0.132,0.286-0.29,0.415-0.588c0.107-0.231,0.152-0.37,0.176-0.455
	c0.027-0.1,0.027-0.186-0.007-0.297c-0.225-0.753-0.477-1.553-0.646-2.021c-0.118-0.363-0.174-0.449-0.483-0.502v-0.165h1.142v0.165
	c-0.259,0.053-0.287,0.119-0.214,0.363l0.511,1.657c0.157-0.448,0.398-1.229,0.517-1.645c0.067-0.25,0.028-0.323-0.292-0.376v-0.165
	h1.017V43.25z"/>
<path fill="#A3A3A3" d="M61.149,45.798c-0.124,0.027-0.545,0.113-0.871,0.251v-0.429l-0.342,0.238
	c-0.219,0.151-0.371,0.19-0.438,0.19c-0.449,0-1.039-0.481-1.039-1.406c0-0.919,0.685-1.638,1.449-1.638
	c0.078,0,0.241,0.021,0.37,0.073v-0.932c0-0.436-0.027-0.456-0.432-0.488V41.5c0.292-0.046,0.668-0.145,0.876-0.231v3.942
	c0,0.344,0.039,0.377,0.247,0.403l0.18,0.02V45.798z M60.278,43.586c-0.135-0.23-0.364-0.337-0.579-0.337
	c-0.258,0-0.729,0.257-0.729,1.215c0,0.786,0.411,1.169,0.77,1.169c0.202,0,0.404-0.105,0.539-0.225V43.586z"/>
<path fill="#A3A3A3" d="M63.182,46.049c-0.084,0-0.201-0.059-0.263-0.125c-0.074-0.093-0.106-0.185-0.135-0.298
	c-0.225,0.179-0.495,0.423-0.663,0.423c-0.399,0-0.674-0.389-0.674-0.805c0-0.324,0.146-0.529,0.455-0.654
	c0.337-0.132,0.747-0.311,0.87-0.43v-0.118c0-0.476-0.191-0.747-0.473-0.747c-0.111,0-0.195,0.053-0.252,0.132
	c-0.072,0.086-0.124,0.232-0.169,0.43c-0.021,0.112-0.084,0.158-0.163,0.158c-0.101,0-0.247-0.132-0.247-0.284
	c0-0.099,0.073-0.171,0.181-0.264c0.156-0.132,0.521-0.389,0.842-0.462c0.169,0,0.338,0.059,0.461,0.178
	c0.197,0.192,0.253,0.462,0.253,0.807v1.228c0,0.298,0.101,0.397,0.196,0.397c0.067,0,0.146-0.034,0.203-0.073l0.056,0.172
	L63.182,46.049z M62.773,44.385c-0.118,0.073-0.389,0.211-0.505,0.277c-0.22,0.119-0.344,0.245-0.344,0.482
	c0,0.344,0.226,0.509,0.399,0.509c0.146-0.008,0.343-0.119,0.449-0.238V44.385z"/>
<path fill="#A3A3A3" d="M65.419,45.97v-0.172c0.326-0.039,0.37-0.079,0.37-0.508v-1.097c0-0.542-0.174-0.813-0.551-0.813
	c-0.213,0-0.427,0.126-0.584,0.337v1.572c0,0.423,0.028,0.469,0.359,0.508v0.172h-1.19l0.006-0.172
	c0.337-0.033,0.382-0.072,0.382-0.508v-3.15c0-0.416-0.012-0.449-0.382-0.489V41.5c0.27-0.047,0.606-0.153,0.825-0.232v2.22
	c0.196-0.238,0.5-0.482,0.804-0.482c0.455-0.007,0.774,0.337,0.774,1.129v1.156c0,0.436,0.04,0.475,0.371,0.508v0.172H65.419z"/>
<path fill-rule="evenodd" clip-rule="evenodd" fill="#A3A3A3" d="M13.405,2.728c6.417-2.544,13.752-7.171,43.165,7.762
	c5.228,2.247,3.285,2.848,13.594,2.848c-4.193,1.783-7.319,4.91-22.998-1.204C42.676,10.49,29.083-3.243,13.405,2.728"/>
<path fill-rule="evenodd" clip-rule="evenodd" fill="#A3A3A3" d="M32.533,6.899c7.757,4.052,14.633,10.307,21.208,11.509
	c-4.188,1.783-10.161,1.204-16.14-1.202C38.044,14.216,35.96,11.093,32.533,6.899"/>
</svg>
