<?xml version="1.0" encoding="utf-8"?>
<!-- Generator: Adobe Illustrator 15.0.0, SVG Export Plug-In  -->
<!DOCTYPE svg PUBLIC "-//W3C//DTD SVG 1.1//EN" "http://www.w3.org/Graphics/SVG/1.1/DTD/svg11.dtd" [
	<!ENTITY ns_flows "http://ns.adobe.com/Flows/1.0/">
]>
<svg version="1.1"
	 xmlns="http://www.w3.org/2000/svg" xmlns:xlink="http://www.w3.org/1999/xlink" xmlns:a="http://ns.adobe.com/AdobeSVGViewerExtensions/3.0/"
	 x="0px" y="0px" width="111px" height="51px" viewBox="0 1.713 111 51" enable-background="new 0 1.713 111 51"
	 xml:space="preserve">
<defs>
</defs>
<g>
	<defs>
		<path id="SVGID_18_" d="M0,25.13c0,0,33.976-17.414,74.321,2.972c0,0-17.711-12.822-41.008-12.824
			C22.957,15.278,11.501,17.812,0,25.13"/>
	</defs>
	<clipPath id="SVGID_19_">
		<use xlink:href="#SVGID_18_"  overflow="visible"/>
	</clipPath>
	
		<linearGradient id="SVGID_20_" gradientUnits="userSpaceOnUse" x1="-17.9634" y1="76.0542" x2="-16.9634" y2="76.0542" gradientTransform="matrix(74.3218 0 0 -74.3218 1335.0795 5670.4185)">
		<stop  offset="0" style="stop-color:#000000"/>
		<stop  offset="0.8727" style="stop-color:#B9B9B9"/>
		<stop  offset="1" style="stop-color:#CECECE"/>
	</linearGradient>
	<rect y="7.716" clip-path="url(#SVGID_19_)" fill="url(#SVGID_20_)" width="74.321" height="20.386"/>
</g>
<g>
	<defs>
		<path id="SVGID_17_" d="M16.376,52.822L16.376,52.822 M16.376,52.822c38.911-10.764,83.891-1.656,83.891-1.656
			c-9.441-4.168-21.026-5.609-32.546-5.609C41.928,45.557,16.492,52.789,16.376,52.822"/>
	</defs>
	<clipPath id="SVGID_21_">
		<use xlink:href="#SVGID_17_"  overflow="visible"/>
	</clipPath>
	
		<linearGradient id="SVGID_22_" gradientUnits="userSpaceOnUse" x1="-17.9634" y1="76.0239" x2="-16.9634" y2="76.0239" gradientTransform="matrix(83.8911 0 0 -83.8911 1523.3551 6425.1758)">
		<stop  offset="0" style="stop-color:#000000"/>
		<stop  offset="0.8727" style="stop-color:#B9B9B9"/>
		<stop  offset="1" style="stop-color:#CECECE"/>
	</linearGradient>
	<rect x="16.376" y="42.058" clip-path="url(#SVGID_21_)" fill="url(#SVGID_22_)" width="83.891" height="10.764"/>
</g>
<g>
	<defs>
		<path id="SVGID_16_" d="M67.186,22.371c0,0-2.854-7.218-16.308-8.987C50.878,13.383,63.434,16.782,67.186,22.371"/>
	</defs>
	<clipPath id="SVGID_23_">
		<use xlink:href="#SVGID_16_"  overflow="visible"/>
	</clipPath>
	
		<linearGradient id="SVGID_24_" gradientUnits="userSpaceOnUse" x1="-17.9634" y1="76.0034" x2="-16.9634" y2="76.0034" gradientTransform="matrix(16.3067 0 0 -16.3067 343.8012 1257.2489)">
		<stop  offset="0" style="stop-color:#000000"/>
		<stop  offset="0.8727" style="stop-color:#B9B9B9"/>
		<stop  offset="1" style="stop-color:#CECECE"/>
	</linearGradient>
	<rect x="50.878" y="13.383" clip-path="url(#SVGID_23_)" fill="url(#SVGID_24_)" width="16.308" height="8.987"/>
</g>
<g>
	<defs>
		<path id="SVGID_15_" d="M74.321,28.102c0,0,28.286,1.087,36.562-3.317L74.321,28.102z"/>
	</defs>
	<clipPath id="SVGID_25_">
		<use xlink:href="#SVGID_15_"  overflow="visible"/>
	</clipPath>
	
		<linearGradient id="SVGID_26_" gradientUnits="userSpaceOnUse" x1="-17.9639" y1="75.9897" x2="-16.9639" y2="75.9897" gradientTransform="matrix(36.5612 0 0 -36.5612 731.0994 2805.2852)">
		<stop  offset="0" style="stop-color:#000000"/>
		<stop  offset="0.8727" style="stop-color:#B9B9B9"/>
		<stop  offset="1" style="stop-color:#CECECE"/>
	</linearGradient>
	<rect x="74.321" y="24.785" clip-path="url(#SVGID_25_)" fill="url(#SVGID_26_)" width="36.562" height="4.404"/>
</g>
<path fill="#414141" d="M15.121,29.935h3.747c3.11,0,4.665,1.02,4.665,3.059v0.146c0,1.24-0.68,2.171-2.039,2.79
	c-0.54,0.215-1.05,0.322-1.531,0.322c0.463,0.214,0.923,0.536,1.38,0.964c0.629,0.812,1.504,2.12,2.626,3.929l1.006,1.477
	l-0.027,0.027h-1.584c-0.066-0.054-0.968-1.443-2.706-4.172c-1.045-1.431-1.947-2.146-2.706-2.146h-1.389v6.265l-0.053,0.054h-1.389
	l-0.053-0.054V29.987L15.121,29.935z M16.563,30.352v5.388h2.021c2.397,0,3.596-0.866,3.596-2.6v-0.12
	c0-1.112-0.508-1.877-1.522-2.294c-0.594-0.249-1.297-0.374-2.11-0.374H16.563z"/>
<path fill="#414141" d="M26.31,29.9h0.071c0.35,0,0.608,0.231,0.775,0.695v0.174c0,0.365-0.202,0.628-0.606,0.791l-0.267,0.025
	c-0.528-0.069-0.792-0.342-0.792-0.816v-0.053c0-0.37,0.184-0.625,0.552-0.765C26.108,29.917,26.197,29.9,26.31,29.9 M25.758,33.254
	h1.104l0.053,0.052v9.307l-0.053,0.052h-1.104l-0.053-0.052v-9.307L25.758,33.254z"/>
<path fill="#414141" d="M29.666,33.489c0.047,0,0.234,0.863,0.561,2.59c0.569,2.705,0.931,4.299,1.086,4.779
	c0.338,0.725,0.756,1.086,1.255,1.086h0.178c0.569,0,0.922-0.402,1.059-1.207c1.009-4.195,1.576-6.61,1.7-7.248h1.282l0.053,0.052
	l-3.32,12.879h-1.282c0.03-0.22,0.407-1.59,1.131-4.109c-0.338,0.307-0.709,0.46-1.113,0.46h-0.018
	c-1.222,0-2.047-0.896-2.474-2.686l-1.389-6.569l0.027-0.026H29.666z"/>
<path fill="#414141" d="M41.451,33.202h0.098c1.163,0,2.057,0.371,2.68,1.113c0.267,0.469,0.4,0.921,0.4,1.354v6.848l-0.035,0.035
	h-1.273l-0.045-0.035v-1.111h-0.018c-0.243,0.382-0.62,0.681-1.13,0.895c-0.546,0.243-1.175,0.365-1.887,0.365
	c-0.825-0.081-1.326-0.203-1.504-0.365c-0.416-0.226-0.721-0.634-0.917-1.225c-0.054-0.232-0.08-0.403-0.08-0.513v-0.131
	c0-1.095,0.807-2.005,2.421-2.729l2.065-0.913c0.807-0.428,1.21-0.935,1.21-1.52c0-0.673-0.457-1.143-1.37-1.408
	c-0.285-0.053-0.496-0.078-0.632-0.078h-0.063c-0.48,0-0.982,0.19-1.504,0.573c-0.35,0.318-0.555,0.551-0.614,0.694h-0.045v-1.06
	c0.386-0.324,0.87-0.55,1.451-0.678C40.998,33.24,41.262,33.202,41.451,33.202 M38.968,40.336c0,0.493,0.166,0.889,0.498,1.19
	c0.333,0.296,0.79,0.443,1.371,0.443c0.997,0,1.81-0.324,2.439-0.974v-4.354c-0.267,0.278-0.676,0.542-1.228,0.791
	c-0.101,0.069-0.43,0.231-0.988,0.486c-0.635,0.342-1.101,0.649-1.398,0.921C39.199,39.264,38.968,39.763,38.968,40.336"/>
<path fill="#414141" d="M51.973,29.9h1.095l0.053,0.052v11.098c-0.154,0.463-0.546,0.904-1.175,1.321
	c-0.653,0.335-1.344,0.504-2.074,0.504c-1.697,0-2.875-0.843-3.534-2.529c-0.207-0.545-0.311-1.152-0.311-1.825v-0.122
	c0-2.346,0.878-3.996,2.635-4.952c0.427-0.181,0.863-0.271,1.308-0.271c0.831,0,1.481,0.293,1.949,0.878v-4.102L51.973,29.9z
	 M47.362,38.321v0.399c0,1.396,0.418,2.431,1.255,3.103c0.404,0.283,0.837,0.426,1.3,0.426h0.133l0.027,0.026l0.018-0.026h0.133
	c0.54,0,1.104-0.292,1.691-0.878v-6.518c-0.534-0.735-1.124-1.104-1.771-1.104h-0.231c-1.003,0-1.763,0.791-2.279,2.372
	C47.454,36.783,47.362,37.515,47.362,38.321"/>
<path fill="#414141" d="M54.857,29.9h1.024l0.044,0.052v4.797c0.837-1.072,1.718-1.607,2.644-1.607H58.8
	c1.11,0,1.858,0.51,2.243,1.529c0.089,0.313,0.134,0.75,0.134,1.313v6.578l-0.045,0.053h-1.041l-0.045-0.053v-7.1
	c0-1.071-0.528-1.607-1.584-1.607h-0.071c-0.688,0-1.413,0.364-2.172,1.095l-0.294,0.365v7.247l-0.044,0.053h-1.024l-0.045-0.053
	V29.952L54.857,29.9z"/>
<path fill="#414141" d="M67.63,29.934h4.139c1.691,0,2.78,0.34,3.268,1.018l0.196,0.495h-0.027
	c-0.528-0.517-1.768-0.773-3.721-0.773h-2.52v3.937h1.576c1.661,0,2.688,0.336,3.08,1.008c0.077,0.058,0.115,0.125,0.115,0.2
	c-0.434-0.261-1.22-0.392-2.359-0.392h-2.412v7.188l-0.053,0.052H67.63l-0.053-0.052V29.987L67.63,29.934z"/>
<path fill="#414141" d="M79.807,33.167l0.098,0.025h0.125c1.115,0,2.054,0.522,2.813,1.565c0.563,0.851,0.845,1.888,0.845,3.109
	v0.122c0,1.698-0.614,3.045-1.842,4.041c-0.582,0.423-1.229,0.634-1.941,0.634h-0.249c-1.662,0-2.821-0.954-3.479-2.866
	c-0.167-0.62-0.25-1.249-0.25-1.887c0-1.737,0.698-3.148,2.092-4.231c0.57-0.324,1.107-0.487,1.611-0.487h0.08L79.807,33.167z
	 M77.217,37.547v0.539c0,1.222,0.358,2.332,1.077,3.327c0.415,0.476,0.896,0.714,1.441,0.714h0.125c0.777,0,1.457-0.58,2.038-1.738
	c0.332-0.736,0.499-1.594,0.499-2.573c-0.065-2.224-0.754-3.586-2.064-4.084c-0.179-0.052-0.33-0.078-0.455-0.078h-0.169
	c-1.192,0-1.997,0.974-2.412,2.92C77.243,36.95,77.217,37.275,77.217,37.547"/>
<path fill="#414141" d="M88.12,33.167l0.099,0.025h0.125c1.115,0,2.053,0.522,2.813,1.565c0.563,0.851,0.846,1.888,0.846,3.109
	v0.122c0,1.698-0.614,3.045-1.843,4.041c-0.582,0.423-1.229,0.634-1.94,0.634H87.97c-1.662,0-2.822-0.954-3.48-2.866
	c-0.167-0.62-0.25-1.249-0.25-1.887c0-1.737,0.698-3.148,2.092-4.231c0.57-0.324,1.107-0.487,1.611-0.487h0.08L88.12,33.167z
	 M85.53,37.547v0.539c0,1.222,0.359,2.332,1.077,3.327c0.415,0.476,0.896,0.714,1.442,0.714h0.125c0.776,0,1.457-0.58,2.038-1.738
	c0.332-0.736,0.499-1.594,0.499-2.573c-0.066-2.224-0.754-3.586-2.065-4.084c-0.178-0.052-0.33-0.078-0.455-0.078h-0.169
	c-1.192,0-1.997,0.974-2.412,2.92C85.558,36.95,85.53,37.275,85.53,37.547"/>
<path fill="#414141" d="M98.518,29.9h1.095l0.054,0.052v11.098c-0.154,0.463-0.546,0.904-1.175,1.321
	c-0.653,0.335-1.345,0.504-2.074,0.504c-1.697,0-2.875-0.843-3.534-2.529c-0.207-0.545-0.312-1.152-0.312-1.825v-0.122
	c0-2.346,0.879-3.996,2.636-4.952c0.427-0.181,0.862-0.271,1.308-0.271c0.831,0,1.481,0.293,1.949,0.878v-4.102L98.518,29.9z
	 M93.906,38.321v0.399c0,1.396,0.419,2.431,1.256,3.103c0.403,0.283,0.837,0.426,1.3,0.426h0.133l0.027,0.026l0.018-0.026h0.133
	c0.54,0,1.104-0.292,1.691-0.878v-6.518c-0.534-0.735-1.124-1.104-1.771-1.104h-0.23c-1.003,0-1.764,0.791-2.279,2.372
	C93.999,36.783,93.906,37.515,93.906,38.321"/>
<g>
	<defs>
		<path id="SVGID_14_" d="M79.121,19.611c-1.752,1.157-2.858,2.907-3.196,4.751c0.004,0.002,0.01,0.004,0.014,0.005
			c0.779-1.547,2.319-2.791,4.387-3.324c1.317-0.341,2.678-0.349,3.957-0.084c0.407-0.755,0.652-1.561,0.719-2.361
			c-0.579-0.153-1.182-0.232-1.792-0.232C81.822,18.366,80.395,18.771,79.121,19.611"/>
	</defs>
	<clipPath id="SVGID_27_">
		<use xlink:href="#SVGID_14_"  overflow="visible"/>
	</clipPath>
	
		<linearGradient id="SVGID_28_" gradientUnits="userSpaceOnUse" x1="-17.9639" y1="75.9995" x2="-16.9639" y2="75.9995" gradientTransform="matrix(-7.3066 7.4898 7.4898 7.3066 -616.4124 -403.0744)">
		<stop  offset="0" style="stop-color:#000000"/>
		<stop  offset="0.1207" style="stop-color:#2A2A2A"/>
		<stop  offset="0.2646" style="stop-color:#565656"/>
		<stop  offset="0.4108" style="stop-color:#7A7A7A"/>
		<stop  offset="0.5571" style="stop-color:#959595"/>
		<stop  offset="0.7038" style="stop-color:#A9A9A9"/>
		<stop  offset="0.8511" style="stop-color:#B5B5B5"/>
		<stop  offset="1" style="stop-color:#B9B9B9"/>
	</linearGradient>
	<polygon clip-path="url(#SVGID_27_)" fill="url(#SVGID_28_)" points="88.001,21.292 80.575,28.904 72.926,21.441 80.351,13.83 	"/>
</g>
<g>
	<defs>
		<path id="SVGID_13_" d="M82.521,18.42c-0.207,1.29-0.698,2.559-1.485,3.667c-1.235,1.743-2.945,2.74-4.668,2.917v0.015
			c1.844,0.34,3.872-0.07,5.577-1.296c1.785-1.283,2.835-3.185,3.038-5.134c-0.516-0.148-1.063-0.223-1.622-0.223
			C83.084,18.365,82.803,18.383,82.521,18.42"/>
	</defs>
	<clipPath id="SVGID_29_">
		<use xlink:href="#SVGID_13_"  overflow="visible"/>
	</clipPath>
	
		<linearGradient id="SVGID_30_" gradientUnits="userSpaceOnUse" x1="-17.9639" y1="76.0015" x2="-16.9639" y2="76.0015" gradientTransform="matrix(-9.5996 4.1621 -4.1621 -9.5996 229.3761 824.1248)">
		<stop  offset="0" style="stop-color:#000000"/>
		<stop  offset="0.8727" style="stop-color:#B9B9B9"/>
		<stop  offset="1" style="stop-color:#CECECE"/>
	</linearGradient>
	<polygon clip-path="url(#SVGID_29_)" fill="url(#SVGID_30_)" points="83.62,15.221 73.816,19.472 77.731,28.502 87.535,24.251 	"/>
</g>
<g>
	<defs>
		<path id="SVGID_12_" d="M81.14,14.333c-1.411,0.933-2.303,2.343-2.575,3.831c0.003,0.001,0.007,0.002,0.01,0.003
			c0.63-1.247,1.871-2.25,3.538-2.68c1.061-0.274,2.159-0.281,3.189-0.066c0.328-0.611,0.526-1.26,0.579-1.904
			c-0.467-0.124-0.953-0.187-1.444-0.187C83.318,13.33,82.168,13.654,81.14,14.333"/>
	</defs>
	<clipPath id="SVGID_31_">
		<use xlink:href="#SVGID_12_"  overflow="visible"/>
	</clipPath>
	
		<linearGradient id="SVGID_32_" gradientUnits="userSpaceOnUse" x1="-17.9639" y1="75.9985" x2="-16.9639" y2="75.9985" gradientTransform="matrix(-5.8905 6.0381 6.0381 5.8905 -479.5826 -326.4297)">
		<stop  offset="0" style="stop-color:#000000"/>
		<stop  offset="0.1207" style="stop-color:#2A2A2A"/>
		<stop  offset="0.2646" style="stop-color:#565656"/>
		<stop  offset="0.4108" style="stop-color:#7A7A7A"/>
		<stop  offset="0.5571" style="stop-color:#959595"/>
		<stop  offset="0.7038" style="stop-color:#A9A9A9"/>
		<stop  offset="0.8511" style="stop-color:#B5B5B5"/>
		<stop  offset="1" style="stop-color:#B9B9B9"/>
	</linearGradient>
	<polygon clip-path="url(#SVGID_31_)" fill="url(#SVGID_32_)" points="88.299,15.688 82.313,21.824 76.146,15.808 82.132,9.672 	"/>
</g>
<g>
	<defs>
		<path id="SVGID_11_" d="M83.882,13.373c-0.167,1.039-0.563,2.063-1.196,2.957c-0.996,1.404-2.374,2.208-3.765,2.351
			c0,0.005,0,0.008,0,0.012c1.487,0.273,3.122-0.058,4.496-1.045c1.439-1.034,2.286-2.569,2.45-4.139
			c-0.415-0.12-0.855-0.181-1.306-0.181C84.337,13.328,84.11,13.342,83.882,13.373"/>
	</defs>
	<clipPath id="SVGID_33_">
		<use xlink:href="#SVGID_11_"  overflow="visible"/>
	</clipPath>
	
		<linearGradient id="SVGID_34_" gradientUnits="userSpaceOnUse" x1="-17.9639" y1="76.0024" x2="-16.9639" y2="76.0024" gradientTransform="matrix(-7.7394 3.3556 -3.3556 -7.7394 202.2837 662.9475)">
		<stop  offset="0" style="stop-color:#000000"/>
		<stop  offset="0.8727" style="stop-color:#B9B9B9"/>
		<stop  offset="1" style="stop-color:#CECECE"/>
	</linearGradient>
	<polygon clip-path="url(#SVGID_33_)" fill="url(#SVGID_34_)" points="84.768,10.792 76.863,14.22 80.021,21.5 87.925,18.073 	"/>
</g>
<g>
	<defs>
		<path id="SVGID_10_" d="M83.033,9.257c-1.224,0.808-1.997,2.031-2.234,3.318c0.004,0.002,0.009,0.003,0.011,0.004
			c0.545-1.081,1.619-1.949,3.064-2.323c0.92-0.237,1.871-0.243,2.764-0.057c0.284-0.528,0.455-1.091,0.502-1.65
			c-0.403-0.107-0.824-0.162-1.252-0.162C84.919,8.387,83.922,8.669,83.033,9.257"/>
	</defs>
	<clipPath id="SVGID_35_">
		<use xlink:href="#SVGID_10_"  overflow="visible"/>
	</clipPath>
	
		<linearGradient id="SVGID_36_" gradientUnits="userSpaceOnUse" x1="-17.9639" y1="75.9985" x2="-16.9639" y2="75.9985" gradientTransform="matrix(-5.1042 5.2321 5.2321 5.1042 -402.8479 -286.0172)">
		<stop  offset="0" style="stop-color:#000000"/>
		<stop  offset="0.1207" style="stop-color:#2A2A2A"/>
		<stop  offset="0.2646" style="stop-color:#565656"/>
		<stop  offset="0.4108" style="stop-color:#7A7A7A"/>
		<stop  offset="0.5571" style="stop-color:#959595"/>
		<stop  offset="0.7038" style="stop-color:#A9A9A9"/>
		<stop  offset="0.8511" style="stop-color:#B5B5B5"/>
		<stop  offset="1" style="stop-color:#B9B9B9"/>
	</linearGradient>
	<polygon clip-path="url(#SVGID_35_)" fill="url(#SVGID_36_)" points="89.235,10.432 84.048,15.749 78.704,10.535 83.892,5.218 	"/>
</g>
<g>
	<defs>
		<path id="SVGID_9_" d="M85.408,8.425c-0.146,0.901-0.489,1.787-1.037,2.561c-0.864,1.218-2.058,1.914-3.262,2.039
			c0,0.003,0,0.006,0,0.009c1.288,0.237,2.705-0.05,3.896-0.905c1.246-0.896,1.981-2.226,2.123-3.586
			c-0.359-0.105-0.742-0.157-1.133-0.157C85.801,8.386,85.605,8.399,85.408,8.425"/>
	</defs>
	<clipPath id="SVGID_37_">
		<use xlink:href="#SVGID_9_"  overflow="visible"/>
	</clipPath>
	
		<linearGradient id="SVGID_38_" gradientUnits="userSpaceOnUse" x1="-17.9639" y1="76.0015" x2="-16.9639" y2="76.0015" gradientTransform="matrix(-6.7058 2.9074 -2.9074 -6.7058 187.9904 571.2515)">
		<stop  offset="0" style="stop-color:#000000"/>
		<stop  offset="0.8727" style="stop-color:#B9B9B9"/>
		<stop  offset="1" style="stop-color:#CECECE"/>
	</linearGradient>
	<polygon clip-path="url(#SVGID_37_)" fill="url(#SVGID_38_)" points="86.176,6.19 79.326,9.159 82.062,15.468 88.911,12.499 	"/>
</g>
<g>
	<defs>
		<path id="SVGID_8_" d="M72.355,16.104c1.101,0.704,2.068,1.661,2.772,2.823c1.107,1.827,1.341,3.791,0.819,5.444
			c0.004,0.001,0.009,0.004,0.013,0.005c1.045-1.557,1.477-3.581,1.03-5.633c-0.467-2.146-1.794-3.868-3.5-4.83
			C72.979,14.532,72.591,15.28,72.355,16.104"/>
	</defs>
	<clipPath id="SVGID_39_">
		<use xlink:href="#SVGID_8_"  overflow="visible"/>
	</clipPath>
	
		<linearGradient id="SVGID_40_" gradientUnits="userSpaceOnUse" x1="-17.9639" y1="75.9897" x2="-16.9639" y2="75.9897" gradientTransform="matrix(-0.001 10.4632 -10.4632 -0.001 869.9811 201.9516)">
		<stop  offset="0" style="stop-color:#000000"/>
		<stop  offset="0.1207" style="stop-color:#2A2A2A"/>
		<stop  offset="0.2646" style="stop-color:#565656"/>
		<stop  offset="0.4108" style="stop-color:#7A7A7A"/>
		<stop  offset="0.5571" style="stop-color:#959595"/>
		<stop  offset="0.7038" style="stop-color:#A9A9A9"/>
		<stop  offset="0.8511" style="stop-color:#B5B5B5"/>
		<stop  offset="1" style="stop-color:#B9B9B9"/>
	</linearGradient>
	<rect x="72.355" y="13.913" clip-path="url(#SVGID_39_)" fill="url(#SVGID_40_)" width="5.082" height="10.463"/>
</g>
<g>
	<defs>
		<path id="SVGID_7_" d="M72.097,19.714c0.365,2.068,1.53,3.778,3.087,4.823c0.004-0.003,0.007-0.007,0.011-0.009
			c-1.11-1.333-1.637-3.24-1.305-5.351c0.213-1.342,0.745-2.595,1.499-3.661c-0.53-0.674-1.173-1.221-1.881-1.6
			C72.293,15.455,71.716,17.55,72.097,19.714"/>
	</defs>
	<clipPath id="SVGID_41_">
		<use xlink:href="#SVGID_7_"  overflow="visible"/>
	</clipPath>
	
		<linearGradient id="SVGID_42_" gradientUnits="userSpaceOnUse" x1="-17.9639" y1="75.937" x2="-16.9639" y2="75.937" gradientTransform="matrix(3.9641 9.6827 9.6827 -3.9641 -592.3743 489.6208)">
		<stop  offset="0" style="stop-color:#000000"/>
		<stop  offset="0.8727" style="stop-color:#B9B9B9"/>
		<stop  offset="1" style="stop-color:#CECECE"/>
	</linearGradient>
	<polygon clip-path="url(#SVGID_41_)" fill="url(#SVGID_42_)" points="74.862,12.629 79.113,23.013 72.243,25.826 67.992,15.442 	
		"/>
</g>
<g>
	<defs>
		<path id="SVGID_6_" d="M75.687,11.504c0.888,0.568,1.668,1.339,2.235,2.277c0.893,1.472,1.081,3.056,0.659,4.388
			c0.004,0.002,0.008,0.004,0.012,0.005c0.843-1.255,1.189-2.887,0.829-4.541c-0.375-1.732-1.445-3.119-2.82-3.895
			C76.189,10.237,75.876,10.839,75.687,11.504"/>
	</defs>
	<clipPath id="SVGID_43_">
		<use xlink:href="#SVGID_6_"  overflow="visible"/>
	</clipPath>
	
		<linearGradient id="SVGID_44_" gradientUnits="userSpaceOnUse" x1="-17.9634" y1="75.9897" x2="-16.9634" y2="75.9897" gradientTransform="matrix(-8.435000e-004 8.4353 -8.4353 -8.435000e-004 718.7197 161.3307)">
		<stop  offset="0" style="stop-color:#000000"/>
		<stop  offset="0.1207" style="stop-color:#2A2A2A"/>
		<stop  offset="0.2646" style="stop-color:#565656"/>
		<stop  offset="0.4108" style="stop-color:#7A7A7A"/>
		<stop  offset="0.5571" style="stop-color:#959595"/>
		<stop  offset="0.7038" style="stop-color:#A9A9A9"/>
		<stop  offset="0.8511" style="stop-color:#B5B5B5"/>
		<stop  offset="1" style="stop-color:#B9B9B9"/>
	</linearGradient>
	<rect x="75.686" y="9.738" clip-path="url(#SVGID_43_)" fill="url(#SVGID_44_)" width="4.097" height="8.437"/>
</g>
<g>
	<defs>
		<path id="SVGID_5_" d="M75.479,14.416c0.293,1.667,1.232,3.046,2.487,3.888c0.003-0.002,0.005-0.005,0.009-0.008
			c-0.895-1.073-1.32-2.611-1.052-4.312c0.171-1.082,0.602-2.091,1.208-2.952c-0.429-0.544-0.945-0.984-1.517-1.29
			C75.636,10.981,75.172,12.67,75.479,14.416"/>
	</defs>
	<clipPath id="SVGID_45_">
		<use xlink:href="#SVGID_5_"  overflow="visible"/>
	</clipPath>
	
		<linearGradient id="SVGID_46_" gradientUnits="userSpaceOnUse" x1="-17.9639" y1="75.937" x2="-16.9639" y2="75.937" gradientTransform="matrix(3.1959 7.8063 7.8063 -3.1959 -460.2254 393.2608)">
		<stop  offset="0" style="stop-color:#000000"/>
		<stop  offset="0.8727" style="stop-color:#B9B9B9"/>
		<stop  offset="1" style="stop-color:#CECECE"/>
	</linearGradient>
	<polygon clip-path="url(#SVGID_45_)" fill="url(#SVGID_46_)" points="77.707,8.704 81.134,17.074 75.597,19.341 72.17,10.971 	"/>
</g>
<g>
	<defs>
		<path id="SVGID_4_" d="M78.306,6.807c0.77,0.492,1.445,1.161,1.938,1.972c0.773,1.277,0.937,2.649,0.572,3.804
			c0.003,0.001,0.006,0.002,0.009,0.003c0.729-1.087,1.031-2.501,0.72-3.934C81.218,7.15,80.291,5.948,79.1,5.276
			C78.741,5.709,78.471,6.23,78.306,6.807"/>
	</defs>
	<clipPath id="SVGID_47_">
		<use xlink:href="#SVGID_4_"  overflow="visible"/>
	</clipPath>
	
		<linearGradient id="SVGID_48_" gradientUnits="userSpaceOnUse" x1="-17.9644" y1="75.9897" x2="-16.9644" y2="75.9897" gradientTransform="matrix(-7.310000e-004 7.3095 -7.3095 -7.310000e-004 635.5185 136.6392)">
		<stop  offset="0" style="stop-color:#000000"/>
		<stop  offset="0.1207" style="stop-color:#2A2A2A"/>
		<stop  offset="0.2646" style="stop-color:#565656"/>
		<stop  offset="0.4108" style="stop-color:#7A7A7A"/>
		<stop  offset="0.5571" style="stop-color:#959595"/>
		<stop  offset="0.7038" style="stop-color:#A9A9A9"/>
		<stop  offset="0.8511" style="stop-color:#B5B5B5"/>
		<stop  offset="1" style="stop-color:#B9B9B9"/>
	</linearGradient>
	<rect x="78.306" y="5.276" clip-path="url(#SVGID_47_)" fill="url(#SVGID_48_)" width="3.55" height="7.31"/>
</g>
<g>
	<defs>
		<path id="SVGID_3_" d="M78.126,9.329c0.255,1.445,1.069,2.64,2.157,3.37c0.002-0.003,0.003-0.005,0.007-0.007
			c-0.776-0.93-1.145-2.262-0.912-3.737c0.149-0.938,0.521-1.813,1.047-2.558c-0.371-0.471-0.818-0.852-1.313-1.117
			C78.262,6.353,77.86,7.817,78.126,9.329"/>
	</defs>
	<clipPath id="SVGID_49_">
		<use xlink:href="#SVGID_3_"  overflow="visible"/>
	</clipPath>
	
		<linearGradient id="SVGID_50_" gradientUnits="userSpaceOnUse" x1="-17.9639" y1="75.937" x2="-16.9639" y2="75.937" gradientTransform="matrix(2.7693 6.7643 6.7643 -2.7693 -386.07 337.6048)">
		<stop  offset="0" style="stop-color:#000000"/>
		<stop  offset="0.8727" style="stop-color:#B9B9B9"/>
		<stop  offset="1" style="stop-color:#CECECE"/>
	</linearGradient>
	<polygon clip-path="url(#SVGID_49_)" fill="url(#SVGID_50_)" points="80.057,4.38 83.026,11.633 78.229,13.598 75.259,6.344 	"/>
</g>
<g>
	<defs>
		<path id="SVGID_2_" d="M83.71,2.547c0.364,0.888,0.539,1.871,0.471,2.868c-0.108,1.564-0.801,2.842-1.813,3.612
			c0.002,0.003,0.005,0.006,0.006,0.01c1.287-0.493,2.401-1.525,3.002-2.944c0.629-1.487,0.562-3.082-0.056-4.38
			C84.75,1.867,84.201,2.152,83.71,2.547"/>
	</defs>
	<clipPath id="SVGID_51_">
		<use xlink:href="#SVGID_2_"  overflow="visible"/>
	</clipPath>
	
		<linearGradient id="SVGID_52_" gradientUnits="userSpaceOnUse" x1="-17.9639" y1="75.9702" x2="-16.9639" y2="75.9702" gradientTransform="matrix(-4.4293 6.2778 -6.2778 -4.4293 483.6502 451.6633)">
		<stop  offset="0" style="stop-color:#000000"/>
		<stop  offset="0.1207" style="stop-color:#2A2A2A"/>
		<stop  offset="0.2646" style="stop-color:#565656"/>
		<stop  offset="0.4108" style="stop-color:#7A7A7A"/>
		<stop  offset="0.5571" style="stop-color:#959595"/>
		<stop  offset="0.7038" style="stop-color:#A9A9A9"/>
		<stop  offset="0.8511" style="stop-color:#B5B5B5"/>
		<stop  offset="1" style="stop-color:#B9B9B9"/>
	</linearGradient>
	<polygon clip-path="url(#SVGID_51_)" fill="url(#SVGID_52_)" points="83.576,0 78.917,6.604 84.795,10.75 89.454,4.147 	"/>
</g>
<g>
	<defs>
		<path id="SVGID_1_" d="M82.029,4.605C81.372,6,81.347,7.519,81.84,8.805c0.002-0.001,0.006-0.001,0.011-0.001
			c-0.104-1.269,0.388-2.637,1.48-3.762c0.695-0.716,1.545-1.241,2.449-1.564c-0.033-0.63-0.188-1.228-0.452-1.756
			C83.949,2.131,82.715,3.145,82.029,4.605"/>
	</defs>
	<clipPath id="SVGID_53_">
		<use xlink:href="#SVGID_1_"  overflow="visible"/>
	</clipPath>
	
		<linearGradient id="SVGID_54_" gradientUnits="userSpaceOnUse" x1="-17.9639" y1="76.0034" x2="-16.9639" y2="76.0034" gradientTransform="matrix(-1.7195 7.4886 7.4886 1.7195 -515.6284 5.353)">
		<stop  offset="0" style="stop-color:#000000"/>
		<stop  offset="0.8727" style="stop-color:#B9B9B9"/>
		<stop  offset="1" style="stop-color:#CECECE"/>
	</linearGradient>
	<polygon clip-path="url(#SVGID_53_)" fill="url(#SVGID_54_)" points="87.325,2.077 85.559,9.772 79.803,8.451 81.569,0.755 	"/>
</g>
</svg>
