<?xml version="1.0" encoding="utf-8"?>
<!-- Generator: Adobe Illustrator 15.0.0, SVG Export Plug-In  -->
<!DOCTYPE svg PUBLIC "-//W3C//DTD SVG 1.1//EN" "http://www.w3.org/Graphics/SVG/1.1/DTD/svg11.dtd" [
	<!ENTITY ns_flows "http://ns.adobe.com/Flows/1.0/">
]>
<svg version="1.1"
	 xmlns="http://www.w3.org/2000/svg" xmlns:xlink="http://www.w3.org/1999/xlink" xmlns:a="http://ns.adobe.com/AdobeSVGViewerExtensions/3.0/"
	 x="0px" y="0px" width="102px" height="35px" viewBox="0 0 102 35" enable-background="new 0 0 102 35" xml:space="preserve">
<defs>
</defs>
<rect x="62.086" y="4.285" fill="#A1A1A1" width="1.151" height="13.84"/>
<path fill="#A1A1A1" d="M74.326,18.125v0.02c0,2.474-1.728,3.774-3.904,3.646c-0.872-0.063-1.874-0.426-2.11-0.575
	c0,0-0.063-0.535-0.127-1.066c0.874,0.49,1.577,0.531,2.11,0.555c1.727,0.064,2.857-0.938,2.88-2.579h-2.518
	c-2.729,0-4.731-2.047-4.731-4.607c0-2.536,1.809-4.902,4.731-4.902h3.669v8.421h3.131v1.088H74.326z M73.175,17.038V9.681h-2.518
	c-2.196,0-3.454,2.026-3.454,3.648c0,1.834,1.258,3.709,3.454,3.709H73.175z"/>
<path fill="#A1A1A1" d="M84.919,13.263c-0.468,0.769-1.704,1.556-3.005,1.556c-1.6,0-3.198-1.086-3.198-2.963
	c0-1.301,0.79-2.303,1.94-2.772c1.279-0.555,4.114-0.384,5.522-0.468v5.629c0,1.108-0.256,3.88-3.391,3.88h-5.417v-1.087h5.117
	c1.58,0,2.539-0.938,2.539-2.623v-1.322L84.919,13.263z M82.127,13.775c2.516,0,2.985-2.068,2.879-4.094
	c-1.641,0.065-5.097-0.404-5.097,2.175C79.909,13.158,80.955,13.775,82.127,13.775 M83.534,5.715h-1.343v-1.43h1.343V5.715z"/>
<path fill="#A1A1A1" d="M93.598,18.125c-2.73,0-4.732-2.047-4.732-4.607c0-2.536,1.813-4.902,4.732-4.902h3.669v9.529
	c0,2.474-1.729,3.774-3.903,3.646c-0.875-0.063-1.877-0.426-2.111-0.575c0,0-0.064-0.535-0.129-1.066
	c0.875,0.49,1.579,0.531,2.112,0.555c1.729,0.064,2.857-0.938,2.879-2.579H93.598z M96.114,17.038V9.681h-2.517
	c-2.196,0-3.454,2.026-3.454,3.648c0,1.834,1.258,3.709,3.454,3.709H96.114z"/>
<path fill="#A1A1A1" d="M98.692,3.071l0.256-0.682h0.533V1.664c0-0.853,0.405-1.664,1.364-1.664c0.724,0,1.258,0.641,1.301,1.324
	h-0.725c-0.021-0.364-0.172-0.662-0.597-0.662c-0.491,0-0.662,0.47-0.662,1.002v0.725h1.153c0.084,0,0.341,0,0.466-0.235
	l0.493,0.448c-0.299,0.405-0.662,0.469-1.025,0.469H98.692z M101.487,4.285h-1.153v13.84h1.153V4.285z"/>
<polygon fill="#A1A1A1" points="66.441,24.059 66.411,24.059 62.086,34.613 62.781,34.613 66.184,26.152 69.555,34.613 
	70.716,34.613 "/>
<polygon fill="#A1A1A1" points="86.259,34.612 86.292,34.612 90.615,24.059 89.921,24.059 86.518,32.521 83.146,24.059 
	81.984,24.059 "/>
<path fill="#A1A1A1" d="M81.573,29.479c0,3.059-2.177,5.418-4.985,5.418c-2.806,0-4.984-2.359-4.984-5.418s2.179-5.42,4.984-5.42
	C79.396,24.059,81.573,26.42,81.573,29.479 M72.894,29.479c0,3.327,1.935,4.991,3.694,4.991c1.759,0,3.694-1.664,3.694-4.991
	c0-3.328-1.936-4.992-3.694-4.992C74.828,24.487,72.894,26.151,72.894,29.479"/>
<path fill="#A1A1A1" d="M101.46,29.479c0,3.059-2.178,5.418-4.986,5.418c-2.806,0-4.982-2.359-4.982-5.418s2.177-5.42,4.982-5.42
	C99.282,24.059,101.46,26.42,101.46,29.479 M92.78,29.479c0,3.327,1.937,4.991,3.693,4.991c1.758,0,3.695-1.664,3.695-4.991
	c0-3.328-1.938-4.992-3.695-4.992C94.717,24.487,92.78,26.151,92.78,29.479"/>
<polygon fill="#A1A1A1" points="64.833,31.002 68.413,31.002 68.413,30.339 65.08,30.339 "/>
<path fill="#A1A1A1" d="M42.232,4.328C19.091,5.143,16.642,8.57,16.642,8.57c9.994-4.06,25.47-2.993,25.59-2.97V4.328z"/>
<rect x="40.911" y="4.348" fill="#A1A1A1" width="1.316" height="4.667"/>
<path fill="#A1A1A1" d="M48.524,8.6C21.283,12.3,3.349,6.187,3.349,6.187c22.655,6.646,36.768,3.57,43.854,3.674v5.531h1.317V9.873
	h0.005V8.6z"/>
<path fill="#A1A1A1" d="M52.481,14.993C29.341,15.808,0,5.061,0,5.061c24.184,10.366,46.764,11.178,52.481,11.205V14.993z"/>
<rect x="51.161" y="15.014" fill="#A1A1A1" width="1.317" height="19.668"/>
<rect x="2.298" y="15.014" fill="#A1A1A1" width="1.317" height="19.668"/>
<path fill="#A1A1A1" d="M15.812,28.177v-0.13h-0.014c-0.096-2.773-2.359-4.997-5.157-4.997c-2.796,0-5.06,2.224-5.157,4.997H5.457
	v6.635h1.317v-6.413h0.028c0-0.015-0.004-0.03-0.004-0.043c0-2.123,1.721-3.844,3.843-3.844c2.124,0,3.845,1.721,3.845,3.844
	c0,0.013-0.005,0.028-0.005,0.043h0.015v6.413h1.316v-6.413c0-0.015,0.006-0.03,0.006-0.043
	C15.818,28.208,15.812,28.195,15.812,28.177"/>
<path fill="#A1A1A1" d="M49.399,28.177v-0.13h-0.013c-0.097-2.773-2.361-4.997-5.157-4.997c-2.796,0-5.062,2.224-5.157,4.997h-0.026
	v6.635h1.315v-6.413h0.028c0-0.015-0.004-0.03-0.004-0.043c0-2.123,1.721-3.844,3.844-3.844c2.122,0,3.843,1.721,3.843,3.844
	c0,0.013-0.005,0.028-0.005,0.043h0.015v6.413h1.317v-6.413c0-0.015,0.005-0.03,0.005-0.043
	C49.404,28.208,49.399,28.195,49.399,28.177"/>
<path fill="#A1A1A1" d="M34.685,25.712v-0.186h-0.02c-0.136-3.912-3.33-7.052-7.278-7.052c-3.946,0-7.142,3.14-7.279,7.052h-0.036
	v9.155h1.856v-8.84h0.042c0-0.023-0.007-0.043-0.007-0.063c0-2.994,2.429-5.424,5.424-5.424c2.996,0,5.424,2.43,5.424,5.424
	c0,0.021-0.006,0.04-0.006,0.063h0.021v8.84h1.859v-8.84c0-0.023,0.006-0.043,0.006-0.063
	C34.691,25.754,34.685,25.735,34.685,25.712"/>
</svg>
