<?xml version="1.0" encoding="utf-8"?>
<!-- Generator: Adobe Illustrator 15.0.0, SVG Export Plug-In  -->
<!DOCTYPE svg PUBLIC "-//W3C//DTD SVG 1.1//EN" "http://www.w3.org/Graphics/SVG/1.1/DTD/svg11.dtd" [
	<!ENTITY ns_flows "http://ns.adobe.com/Flows/1.0/">
]>
<svg version="1.1"
	 xmlns="http://www.w3.org/2000/svg" xmlns:xlink="http://www.w3.org/1999/xlink" xmlns:a="http://ns.adobe.com/AdobeSVGViewerExtensions/3.0/"
	 x="0px" y="0px" width="73px" height="69px" viewBox="0 0 73 69" enable-background="new 0 0 73 69" xml:space="preserve">
<defs>
</defs>
<path d="M1.052,60.697c-0.439,0-0.867-0.404-0.855-0.961c0.016-0.844,0.688-1.149,1.649-1.083v-0.238l0.3-0.095l0.006,1.711
	c0.017,0.429,0.255,0.666,0.66,0.666h0.306v0.283H2.735c-0.628,0-0.812-0.428-0.861-0.761C1.874,60.219,1.652,60.697,1.052,60.697
	 M1.102,60.43c0.811,0,0.755-0.888,0.744-1.499c-0.361,0.01-1.289-0.123-1.339,0.799C0.497,59.93,0.619,60.43,1.102,60.43
	 M1.146,57.547h-0.35v0.378h0.35V57.547z M1.907,57.547h-0.35v0.378h0.35V57.547z"/>
<path d="M3.069,60.98v-0.283h0.456c0.41,0,0.66-0.244,0.66-0.684v-1.332h0.301v1.194c0.011,0.461,0.244,0.821,0.755,0.821h0.227
	v0.283H5.291c-0.428,0-0.767-0.277-0.877-0.55c-0.095,0.279-0.312,0.55-0.812,0.55H3.069z M3.747,61.947h-0.35v-0.378h0.35V61.947z
	 M4.507,61.947h-0.35v-0.378h0.35V61.947z"/>
<path d="M5.441,60.98v-0.282h0.477c0.411,0,0.661-0.245,0.661-0.685v-1.51h0.3v1.466c0,0.288-0.066,1.011-0.883,1.011H5.441z
	 M6.474,57.764c0.128,0,0.244-0.05,0.339-0.193l-0.161-0.146c-0.039,0.089-0.112,0.117-0.161,0.117H6.04v-0.3
	c0-0.218,0.073-0.384,0.262-0.384c0.127,0,0.228,0.083,0.238,0.233h0.211c-0.01-0.271-0.211-0.438-0.444-0.438
	c-0.355,0-0.494,0.282-0.494,0.588v0.3h-0.2l-0.077,0.222H6.474z"/>
<path d="M8.562,60.98c-0.816,0-0.883-0.723-0.883-1.011v-2.593h0.3v2.637c0,0.44,0.25,0.684,0.655,0.684h0.267v0.283H8.562z"/>
<path d="M13.899,60.697v0.283H8.856v-0.283h0.822v-1.705h0.3l-0.066,0.722c0.399-0.882,1.188-1.11,1.81-1.11
	c0.667,0,1.428,0.377,1.428,1.238c0,0.372-0.145,0.662-0.378,0.855H13.899z M11.917,60.697c0.516,0,0.905-0.383,0.905-0.855
	c0-0.716-0.672-0.972-1.05-0.972c-1.499,0-1.844,1.244-1.883,1.827H11.917z M11.729,57.376h-0.351v0.372h0.351V57.376z"/>
<path d="M16.578,59.492c-0.006,0.595-0.344,0.968-0.717,1.183c0.067,0.017,0.111,0.022,0.134,0.022h1.144v0.283h-1.05
	c-0.094,0-0.328-0.033-0.594-0.128c-0.261,0.095-0.505,0.128-0.595,0.128h-1.044v-0.283h1.139c0.022,0,0.072-0.006,0.138-0.022
	c-0.382-0.215-0.721-0.588-0.721-1.183c0-0.561,0.405-1.105,1.083-1.105C16.178,58.386,16.578,58.931,16.578,59.492 M15.495,60.558
	c0.355-0.161,0.777-0.489,0.783-1.06c0-0.38-0.289-0.862-0.783-0.862s-0.783,0.482-0.783,0.862
	C14.722,60.069,15.139,60.397,15.495,60.558 M15.29,57.749h-0.351v-0.372h0.351V57.749z M16.05,57.749H15.7v-0.372h0.35V57.749z"/>
<path d="M17.117,60.98v-0.283h0.478c0.411,0,0.661-0.243,0.661-0.684v-2.637h0.299v2.593c0,0.288-0.066,1.011-0.882,1.011H17.117z"
	/>
<rect x="19.355" y="57.376" width="0.3" height="3.604"/>
<path d="M22.406,60.98c-0.65,0-1.083-0.378-1.166-0.877c-0.045-0.25,0-0.59,0.194-0.828c0.067,0.057,0.155,0.133,0.206,0.172
	c-0.128,0.172-0.167,0.444-0.117,0.64c0.089,0.344,0.4,0.61,0.839,0.61h1.961c0.41,0,0.66-0.244,0.66-0.684v-1.509h0.3v1.465
	c0,0.288-0.067,1.011-0.883,1.011H22.406z M23.089,59.125h-0.35v-0.371h0.35V59.125z M23.855,59.125h-0.351v-0.371h0.351V59.125z"/>
<rect x="26.083" y="57.376" width="0.3" height="3.604"/>
<path d="M28.032,58.503h0.3v2.482c0,0.516-0.445,0.956-1.017,0.95c-0.227,0-0.488-0.112-0.55-0.151l-0.033-0.277
	c0.228,0.128,0.467,0.145,0.55,0.145c0.389,0,0.7-0.238,0.75-0.666V58.503z"/>
<path d="M30.016,60.98c-0.816,0-0.883-0.723-0.883-1.011v-2.593h0.3v2.637c0,0.44,0.25,0.684,0.655,0.684h0.267v0.283H30.016z"/>
<path d="M30.311,60.98v-0.283h0.5c0.411,0,0.661-0.244,0.661-0.684v-1.332h0.3v1.221c0,0.451,0.223,0.861,0.717,0.861
	c0.411,0,0.661-0.256,0.661-0.688v-1.394h0.3v1.221c0,0.451,0.221,0.861,0.716,0.861c0.411,0,0.661-0.256,0.661-0.688v-1.57h0.3
	v1.476c0.05,0.383,0.239,0.717,0.716,0.717h0.284v0.283h-0.239c-0.383,0-0.711-0.283-0.805-0.473l-0.022-0.033
	c-0.095,0.283-0.306,0.567-0.816,0.567c-0.389,0-0.678-0.256-0.866-0.55c-0.106,0.327-0.417,0.55-0.812,0.55
	c-0.327,0-0.61-0.146-0.783-0.455c-0.033-0.045-0.061-0.095-0.089-0.146c-0.094,0.272-0.311,0.539-0.805,0.539H30.311z
	 M33.094,57.749h-0.351v-0.372h0.351V57.749z M33.471,57.13h-0.339v-0.36h0.339V57.13z M33.861,57.749H33.51v-0.372h0.351V57.749z"
	/>
<path d="M36.077,60.98v-0.283h0.456c0.41,0,0.66-0.244,0.66-0.684v-1.332h0.301v1.194c0.011,0.461,0.244,0.821,0.755,0.821h0.228
	v0.283h-0.179c-0.427,0-0.766-0.277-0.877-0.55c-0.094,0.279-0.311,0.55-0.811,0.55H36.077z M36.749,57.925h-0.35v-0.378h0.35
	V57.925z M37.509,57.925h-0.351v-0.378h0.351V57.925z"/>
<path d="M38.45,60.98v-0.283h0.478c0.411,0,0.661-0.243,0.661-0.684v-1.332h0.299v1.221c0,0.451,0.224,0.861,0.717,0.861
	c0.411,0,0.661-0.256,0.661-0.688v-1.394h0.3v1.221c0,0.451,0.223,0.861,0.717,0.861c0.411,0,0.661-0.256,0.661-0.688v-1.571h0.3
	v1.521c0,0.289-0.066,1.017-0.883,1.017c-0.39,0-0.679-0.255-0.866-0.55c-0.106,0.327-0.417,0.55-0.813,0.55
	c-0.327,0-0.609-0.146-0.783-0.456c-0.032-0.044-0.06-0.094-0.089-0.145c-0.093,0.272-0.31,0.539-0.804,0.539H38.45z"/>
<path d="M43.838,60.98l0.148-0.283h0.551l-0.795-3.232h0.301l0.776,3.183c0.234-0.095,0.372-0.312,0.372-0.634v-2.637h0.3v2.593
	c0,0.288-0.065,1.011-0.888,1.011H43.838z"/>
<rect x="46.292" y="57.376" width="0.3" height="3.604"/>
<path d="M48.526,60.98c-0.711,0-1.233-0.533-1.233-1.199c0-0.662,0.473-1.276,1.233-1.276h0.956v2.481
	c0,0.646-0.45,0.982-1.017,0.949c-0.228-0.016-0.489-0.111-0.551-0.15l-0.032-0.276c0.228,0.127,0.409,0.138,0.55,0.144
	c0.449,0.018,0.744-0.244,0.749-0.672H48.526z M49.181,60.697v-1.916h-0.655c-0.573,0-0.9,0.527-0.9,0.949
	c0,0.479,0.327,0.967,0.9,0.967H49.181z"/>
<path d="M53.385,59.647c0,0.667-0.372,1.333-1.176,1.333c-0.789,0-1.162-0.666-1.162-1.333s0.39-1.321,1.162-1.321h1.176V59.647z
	 M53.059,58.597h-0.85c-0.584,0-0.839,0.578-0.839,1.05c0,0.479,0.25,1.063,0.839,1.063c0.616,0,0.85-0.596,0.85-1.063V58.597z
	 M52.302,57.198h-0.35v0.372h0.35V57.198z M53.064,57.198h-0.351v0.372h0.351V57.198z"/>
<path d="M55.07,60.98c-0.816,0-0.884-0.723-0.884-1.011v-2.593h0.301v2.637c0,0.44,0.25,0.684,0.654,0.684h0.268v0.283H55.07z"/>
<path d="M55.387,60.98v-0.283h0.444c0.411,0,0.661-0.256,0.661-0.689v-0.304c0-0.612,0.366-1.328,1.166-1.328
	s1.167,0.716,1.167,1.328c0,0.621-0.367,1.326-1.167,1.326c-0.461,0-0.777-0.228-0.961-0.538c-0.105,0.25-0.333,0.488-0.794,0.488
	H55.387z M57.659,58.647c-0.605,0-0.855,0.589-0.855,1.057c0,0.461,0.25,1.054,0.855,1.054c0.604,0,0.845-0.548,0.845-1.054
	C58.503,59.236,58.263,58.647,57.659,58.647"/>
<path d="M60.508,60.98c-0.816,0-0.883-0.723-0.883-1.011v-2.593h0.3v2.637c0,0.44,0.25,0.684,0.654,0.684h0.268v0.283H60.508z"/>
<path d="M60.803,60.98v-0.283h2.8l0.005-0.316c0.011-0.738-0.322-1.593-1.244-1.593c-0.478,0-0.828,0.215-0.889,0.653h-0.283
	c0.05-0.648,0.584-0.938,1.172-0.938c1.088,0,1.549,0.889,1.549,1.877v0.316h0.823v0.283H60.803z"/>
<path d="M64.875,60.697c0.199,0,0.644-0.117,0.666-0.666c0.033-0.605,0.404-1.276,1.167-1.276c0.771,0,1.144,0.666,1.172,1.259
	c0.055,0.367,0.244,0.684,0.711,0.684h0.283v0.283h-0.239c-0.383,0-0.717-0.283-0.811-0.473c-0.14,0.5-0.522,0.9-1.116,0.9
	c-0.539,0-0.917-0.334-1.072-0.761c-0.101,0.161-0.333,0.333-0.711,0.333h-0.239v-0.283H64.875z M66.708,59.025
	c-0.602,0-0.846,0.594-0.846,1.055c0,0.467,0.244,1.056,0.846,1.056c0.604,0,0.85-0.589,0.85-1.056
	C67.558,59.619,67.312,59.025,66.708,59.025"/>
<path d="M68.775,60.98v-0.283h0.506c0.41,0,0.66-0.243,0.66-0.684v-2.637h0.301v2.499c0,0.46,0.244,0.821,0.755,0.821h0.395v0.283
	h-0.346c-0.427,0-0.766-0.276-0.876-0.55c-0.095,0.279-0.312,0.55-0.812,0.55H68.775z"/>
<path d="M71.341,60.98v-0.283h0.478c0.411,0,0.661-0.243,0.661-0.684v-2.637h0.299v2.593c0,0.288-0.065,1.011-0.882,1.011H71.341z"
	/>
<path d="M7.217,51.055c-0.335-0.804-0.658-1.495-0.859-1.964c-0.077-0.166-0.134-0.301-0.19-0.412
	c-0.457-1.004-0.658-1.216-0.981-1.216c-0.179,0-0.245,0.156-0.245,0.335c0,0.189,0.078,0.379,0.123,0.502
	c0.055,0.146,0.089,0.245,0.167,0.412c0.167,0.379,0.479,1.149,1.372,3.336H2.465c-0.948,0-1.662-0.335-1.662-1.395v-2.053
	c0-0.268-0.167-0.357-0.803-0.357v-0.379l1.785-0.078v2.912c0,0.591,0.268,0.902,0.748,0.937h2.921
	c-0.568-1.573-1.483-3.09-1.483-3.938c0-0.368,0.19-0.636,0.636-0.636h0.39c0.647,0,1.127,0.134,1.584,1.227
	c0.134,0.324,0.402,0.915,0.636,1.485c0.335,0.757,0.613,1.806,1.461,1.861h0.48v0.413H8.89C8.054,52.048,7.507,51.737,7.217,51.055
	 M3.648,53.632c0,0.301-0.235,0.558-0.558,0.558c-0.346,0-0.569-0.257-0.569-0.558c0-0.324,0.223-0.569,0.569-0.569
	C3.413,53.063,3.648,53.308,3.648,53.632 M5.265,53.632c0,0.301-0.245,0.558-0.568,0.558c-0.335,0-0.57-0.257-0.57-0.558
	c0-0.324,0.235-0.569,0.57-0.569C5.02,53.063,5.265,53.308,5.265,53.632"/>
<path d="M8.962,51.635h0.58c0.592-0.011,0.837-0.424,0.837-1.07v-2.711c0-0.268-0.011-0.346-0.502-0.502l1.472-0.278v3.523
	c0,0.938-0.669,1.451-1.617,1.451h-0.77V51.635z M10.602,53.632c0,0.322-0.268,0.568-0.58,0.568c-0.313,0-0.58-0.246-0.58-0.568
	c0-0.335,0.267-0.58,0.58-0.58C10.334,53.052,10.602,53.297,10.602,53.632"/>
<path d="M13.169,45.757c0-0.268-0.168-0.369-0.804-0.369v-0.367l1.785-0.077v5.755c0,0.591,0.268,0.902,0.737,0.937h0.557v0.413
	h-0.625c-0.948,0-1.65-0.335-1.65-1.395V45.757z"/>
<path d="M15.245,51.635h0.903c0.012-0.078,0.09-0.4,0.134-0.624c0.212-0.949,0.848-1.83,1.975-1.83c0.981,0,1.539,0.646,1.539,1.316
	c0,0.436-0.379,0.87-0.892,1.138h1.718c-0.034-2.521-1.104-3.858-2.019-3.858c-0.982,0-1.383,0.59-1.595,1.349h-0.48
	c0.223-1.204,1.104-1.673,2.064-1.673c1.728,0,3,2.131,3.022,4.183h1.395v0.413h-7.764V51.635z M16.584,51.635h0.558
	c0.736-0.011,1.706-0.335,1.706-1.315c0-0.492-0.368-0.781-0.736-0.781c-0.557,0-1.205,0.602-1.462,1.762L16.584,51.635z"/>
<path d="M26.57,52.048c-0.568,0-1.048-0.346-1.393-0.871c-0.268,0.67-0.96,0.871-1.652,0.871h-0.713v-0.413h0.513
	c0.591,0,0.836-0.391,0.836-1.038v-2.799c0-0.246-0.044-0.29-0.49-0.446l1.472-0.278v2.844c0,0.703,0.468,1.718,1.25,1.718h0.311
	v0.413H26.57z M25.043,45.344c0,0.313-0.246,0.569-0.569,0.569c-0.335,0-0.569-0.257-0.569-0.569c0-0.323,0.234-0.569,0.569-0.569
	C24.797,44.775,25.043,45.021,25.043,45.344"/>
<path d="M26.506,51.635h0.245c0.625,0,0.882-0.413,0.882-1.07v-4.874c0-0.258,0-0.335-0.491-0.492l1.472-0.278v5.677
	c0,0.938-0.68,1.451-1.629,1.451h-0.479V51.635z"/>
<path d="M30.099,45.69c0-0.257-0.011-0.335-0.479-0.491l1.46-0.278v7.128h-0.981V45.69z"/>
<path d="M39.182,52.048c-0.759-0.012-1.384-0.146-1.384-1.16c-0.167,0.479-0.669,1.16-1.617,1.16c-1.171,0-2.053-1.205-2.053-2.588
	c0-1.283,0.882-2.543,2.287-2.543c0.637,0,1.061,0.278,1.317,0.445c0.122,0.078,0.189,0.123,0.189,0.123
	c0.022,0,0.077-0.145,0.123-0.279c0.021-0.045,0-0.089,0.076-0.167h0.56c-0.068,0.29-0.078,0.58-0.078,0.815v2.888
	c0,0.302,0.055,0.848,0.58,0.893h1.249v0.413h-0.948H39.182z M35.144,49.527c0,1.64,0.714,2.142,1.182,2.142
	c0.546,0,1.026-0.413,1.204-1.004c0.102-0.335,0.124-0.759,0.124-1.349c0-0.949-0.124-2.009-1.239-2.009
	C35.545,47.307,35.144,48.378,35.144,49.527 M36.36,45.544c0,0.313-0.246,0.569-0.57,0.569c-0.345,0-0.567-0.257-0.567-0.569
	c0-0.312,0.223-0.567,0.567-0.567C36.114,44.977,36.36,45.233,36.36,45.544 M37.966,45.544c0,0.313-0.234,0.569-0.569,0.569
	s-0.569-0.257-0.569-0.569c0-0.312,0.234-0.567,0.569-0.567S37.966,45.233,37.966,45.544"/>
<path d="M40.233,51.635h1.963c-0.669-0.445-1.093-1.204-1.093-2.13c0-1.484,1.216-2.555,2.599-2.555c0.837,0,1.606,0.513,1.606,1.26
	c0,0.346-0.245,0.658-0.646,0.658c-0.403,0-0.636-0.245-0.636-0.558c0-0.312,0.188-0.49,0.522-0.49c0.079,0,0.146,0.011,0.225,0.022
	c-0.156-0.302-0.47-0.536-1.037-0.536c-0.993,0-1.519,0.703-1.519,2.075c0,1.293,0.48,2.253,1.584,2.253
	c0.48,0,0.849-0.146,1.139-0.4l0.278,0.188c-0.413,0.401-0.925,0.625-1.616,0.625h-3.369V51.635z"/>
<path d="M47.152,54c0.803-0.178,1.829-0.535,2.24-1.951h-1.281c-0.747,0-1.707-0.67-1.707-1.74c0-1.941,1.36-3.19,3.258-3.19h0.847
	v2.734c0,0.713-0.021,1.304-0.078,1.783h1.439v0.413h-1.539c-0.469,1.784-1.629,2.052-2.532,2.052c-0.157,0-0.513-0.022-0.915-0.056
	L47.152,54z M49.528,47.463h-0.123c-0.981,0-2.03,1.116-2.03,2.777c0,0.659,0.345,1.395,0.981,1.395h1.149
	c0.01-0.111,0.022-0.199,0.022-0.346V47.463z"/>
<path d="M57.205,51.3c-0.323,0.682-1.015,1.227-2.097,1.227c-1.015,0-1.483-0.523-1.818-0.947c-0.256,0.279-0.58,0.469-1.171,0.469
	h-0.446v-0.413h0.458c0.1-0.022,0.289-0.056,0.423-0.167c0.334-0.323,0.514-0.992,0.658-1.551c0.269-1.037,0.547-2.063,2.187-2.063
	c1.35,0,2.074,1.359,2.074,2.386c0,0.146-0.011,0.279-0.033,0.402c0.189,0.523,0.579,0.992,1.082,0.992h0.469v0.413h-0.245
	C58.008,52.048,57.584,51.792,57.205,51.3 M55.198,48.21c-0.714,0-0.938,0.805-1.16,1.674l-0.023,0.066
	c-0.1,0.379-0.2,0.792-0.413,1.194c0.023,0.011,0.046,0.045,0.057,0.066c0.29,0.356,0.792,0.926,1.482,0.926
	c0.703,0,1.307-0.824,1.307-1.841c0-1.06-0.392-2.053-1.205-2.086H55.198z"/>
<path d="M66.644,51.635c1.283,0,1.539-0.893,1.796-1.808c0.245-0.936,0.604-1.963,2.197-1.973c1.362,0,2.076,1.359,2.076,2.386
	c0,1.082-0.77,2.286-2.354,2.286c-1.026,0-1.495-0.535-1.842-0.947c-0.267,0.279-0.669,0.469-1.249,0.469h-8.477v-0.413h5.12
	c-0.033-2.521-0.915-3.849-1.818-3.849c-0.993,0-1.64,0.983-1.985,2.131l-0.457-0.836c0.167-0.09,0.277-0.18,0.445-0.435
	c0.391-0.637,0.914-1.25,2.03-1.25c1.773,0,2.855,2.175,2.889,4.238H66.644z M62.742,53.632c0,0.334-0.27,0.58-0.58,0.58
	c-0.313,0-0.58-0.246-0.58-0.58c0-0.323,0.267-0.568,0.58-0.568C62.472,53.064,62.742,53.309,62.742,53.632 M70.449,48.21
	c-0.714,0-0.938,0.805-1.171,1.674c-0.111,0.401-0.201,0.836-0.425,1.261l0.102,0.134c0.289,0.334,0.747,0.858,1.438,0.858
	c0.703,0,1.306-0.824,1.306-1.841c0-1.06-0.401-2.053-1.204-2.086H70.449z"/>
<path d="M7.935,68.627l1.017-2.647H9.33l1.083,2.647h-0.399l-0.309-0.802H8.598l-0.291,0.802H7.935z M8.699,67.541h0.896
	L9.32,66.809c-0.085-0.224-0.147-0.407-0.188-0.551c-0.034,0.17-0.081,0.34-0.143,0.507L8.699,67.541z"/>
<polygon points="12.527,68.627 12.527,65.981 12.877,65.981 12.877,68.316 14.181,68.316 14.181,68.627 "/>
<polygon points="16.443,68.627 16.443,65.981 16.802,65.981 18.193,68.058 18.193,65.981 18.529,65.981 18.529,68.627 
	18.169,68.627 16.779,66.547 16.779,68.627 "/>
<polygon points="20.977,68.627 20.977,65.981 21.328,65.981 21.328,67.068 22.704,67.068 22.704,65.981 23.053,65.981 
	23.053,68.627 22.704,68.627 22.704,67.38 21.328,67.38 21.328,68.627 "/>
<path d="M25.194,68.627l1.017-2.647h0.378l1.083,2.647h-0.399l-0.309-0.802h-1.107l-0.291,0.802H25.194z M25.959,67.541h0.896
	l-0.275-0.731c-0.085-0.224-0.147-0.407-0.188-0.551c-0.034,0.17-0.081,0.34-0.143,0.507L25.959,67.541z"/>
<path d="M29.786,68.627V65.98h0.994c0.202,0,0.364,0.027,0.487,0.08c0.122,0.055,0.218,0.137,0.287,0.248
	c0.068,0.111,0.104,0.229,0.104,0.35c0,0.113-0.032,0.221-0.092,0.319c-0.062,0.101-0.155,0.181-0.279,0.242
	c0.161,0.047,0.284,0.127,0.37,0.24c0.085,0.112,0.128,0.248,0.128,0.4c0,0.124-0.026,0.239-0.078,0.348
	c-0.052,0.104-0.117,0.187-0.194,0.245c-0.077,0.058-0.174,0.102-0.29,0.132c-0.116,0.028-0.259,0.043-0.427,0.043H29.786z
	 M30.137,67.093h0.572c0.156,0,0.267-0.01,0.334-0.031c0.089-0.026,0.156-0.07,0.201-0.132c0.046-0.062,0.069-0.137,0.069-0.231
	c0-0.088-0.022-0.165-0.064-0.231c-0.042-0.067-0.102-0.112-0.18-0.138c-0.078-0.024-0.212-0.036-0.403-0.036h-0.529V67.093z
	 M30.137,68.315h0.659c0.113,0,0.193-0.004,0.238-0.013c0.082-0.013,0.149-0.038,0.203-0.072c0.053-0.033,0.098-0.082,0.133-0.146
	c0.036-0.065,0.052-0.14,0.052-0.225c0-0.099-0.024-0.185-0.075-0.257c-0.051-0.073-0.121-0.124-0.211-0.154
	c-0.089-0.029-0.219-0.043-0.387-0.043h-0.612V68.315z"/>
<rect x="34.176" y="65.98" width="0.351" height="2.647"/>
<path d="M37.739,68.627v-1.121l-1.021-1.525h0.426l0.523,0.798c0.095,0.148,0.185,0.299,0.268,0.448
	c0.08-0.14,0.177-0.295,0.289-0.468l0.514-0.778h0.407l-1.056,1.525v1.121H37.739z"/>
<path d="M45.356,67.589v-0.311l1.122-0.001v0.981c-0.173,0.138-0.351,0.24-0.533,0.31s-0.37,0.104-0.564,0.104
	c-0.259,0-0.496-0.056-0.708-0.167c-0.213-0.11-0.373-0.271-0.48-0.481c-0.108-0.211-0.162-0.447-0.162-0.707
	c0-0.258,0.054-0.498,0.161-0.722c0.106-0.223,0.263-0.389,0.465-0.498c0.202-0.107,0.435-0.161,0.699-0.161
	c0.19,0,0.363,0.03,0.519,0.093c0.155,0.062,0.276,0.148,0.364,0.259c0.088,0.111,0.154,0.255,0.2,0.433l-0.316,0.088
	c-0.039-0.136-0.089-0.24-0.147-0.318c-0.06-0.077-0.144-0.138-0.253-0.186c-0.109-0.046-0.231-0.068-0.365-0.068
	c-0.159,0-0.298,0.023-0.415,0.072c-0.116,0.05-0.211,0.113-0.282,0.192c-0.072,0.079-0.127,0.167-0.167,0.262
	c-0.068,0.163-0.102,0.342-0.102,0.532c0,0.236,0.041,0.435,0.122,0.593c0.08,0.159,0.198,0.276,0.354,0.354
	c0.155,0.077,0.32,0.116,0.495,0.116c0.151,0,0.3-0.03,0.444-0.088c0.145-0.06,0.254-0.121,0.327-0.188v-0.492H45.356z"/>
<path d="M48.848,68.627V65.98h1.173c0.237,0,0.416,0.024,0.538,0.072c0.123,0.047,0.223,0.131,0.295,0.252
	c0.073,0.119,0.111,0.253,0.111,0.399c0,0.187-0.062,0.345-0.183,0.474c-0.122,0.129-0.311,0.211-0.563,0.246
	c0.092,0.045,0.163,0.088,0.21,0.131c0.104,0.095,0.2,0.212,0.291,0.354l0.46,0.72h-0.439l-0.351-0.55
	c-0.102-0.159-0.186-0.281-0.253-0.365c-0.065-0.084-0.126-0.144-0.177-0.177c-0.053-0.033-0.106-0.058-0.16-0.071
	c-0.04-0.007-0.104-0.011-0.196-0.011h-0.405v1.174H48.848z M49.199,67.148h0.753c0.16,0,0.286-0.016,0.376-0.049
	s0.159-0.086,0.206-0.159s0.069-0.15,0.069-0.236c0-0.125-0.046-0.229-0.136-0.31c-0.091-0.08-0.234-0.121-0.431-0.121h-0.838
	V67.148z"/>
<path d="M53.256,67.338c0-0.438,0.118-0.784,0.354-1.032c0.236-0.248,0.541-0.373,0.913-0.373c0.244,0,0.466,0.059,0.661,0.177
	c0.197,0.116,0.347,0.278,0.449,0.487c0.104,0.209,0.154,0.445,0.154,0.711c0,0.268-0.054,0.509-0.162,0.721
	c-0.109,0.211-0.262,0.372-0.461,0.48c-0.198,0.109-0.412,0.163-0.644,0.163c-0.249,0-0.471-0.059-0.668-0.181
	c-0.195-0.12-0.344-0.284-0.445-0.492C53.306,67.791,53.256,67.572,53.256,67.338 M53.618,67.343c0,0.319,0.086,0.57,0.257,0.754
	c0.172,0.184,0.387,0.275,0.645,0.275c0.265,0,0.481-0.092,0.652-0.277c0.17-0.186,0.255-0.449,0.255-0.789
	c0-0.216-0.037-0.403-0.108-0.564c-0.073-0.161-0.18-0.285-0.32-0.374c-0.14-0.088-0.297-0.132-0.472-0.132
	c-0.248,0-0.463,0.085-0.641,0.255C53.707,66.661,53.618,66.946,53.618,67.343"/>
<path d="M59.825,65.98h0.35v1.529c0,0.267-0.03,0.479-0.09,0.635c-0.062,0.156-0.169,0.283-0.326,0.381
	c-0.158,0.1-0.364,0.147-0.619,0.147c-0.248,0-0.451-0.042-0.607-0.128c-0.158-0.085-0.271-0.209-0.338-0.371
	s-0.101-0.382-0.101-0.664V65.98h0.35v1.527c0,0.23,0.021,0.4,0.064,0.509c0.043,0.109,0.116,0.193,0.22,0.252
	c0.104,0.061,0.232,0.089,0.383,0.089c0.257,0,0.44-0.059,0.551-0.176c0.108-0.116,0.164-0.341,0.164-0.674V65.98z"/>
<path d="M62.606,68.628V65.98h0.999c0.176,0,0.311,0.009,0.403,0.026c0.13,0.021,0.239,0.063,0.327,0.124
	c0.088,0.061,0.158,0.145,0.212,0.255c0.054,0.109,0.08,0.229,0.08,0.36c0,0.226-0.071,0.416-0.215,0.572
	c-0.144,0.155-0.402,0.233-0.776,0.233h-0.679v1.077H62.606z M62.958,67.239h0.685c0.226,0,0.386-0.042,0.481-0.126
	s0.143-0.203,0.143-0.354c0-0.112-0.028-0.206-0.084-0.286c-0.056-0.078-0.13-0.13-0.221-0.156
	c-0.061-0.015-0.168-0.023-0.327-0.023h-0.677V67.239z"/>
<path fill="#B0B0B0" d="M23.334,10.033l-0.001,0.003l-0.003-0.004c-1.206,2.469-1.269,5.215-1.269,5.215s-0.653,6.495,4.95,11.231
	c-1.138,0.389-2.353,0.61-3.623,0.61c-0.005,0-0.01-0.002-0.014-0.002c-0.006,0-0.01,0.002-0.015,0.002
	c-1.283,0-2.516-0.217-3.664-0.614c1.475-1.237,2.693-2.77,3.552-4.514c-0.408-0.626-1.247-3.208-1.39-4.074
	c-1.336,6.838-7.236,8.489-7.426,8.537c2.412,2.046,5.532,3.282,8.943,3.286c2.251-0.003,5.86-0.637,8.868-3.225
	c-2.612-0.625-7.78-4.782-7.574-10.629c0.031-0.901,0.106-1.779,0.308-2.618c7.274,2.231,13.658,10.128,12.481,18.66h2.741
	C40.793,25.715,37.82,13.149,23.334,10.033"/>
<path fill="#B0B0B0" d="M49.388,10.033l0.003,0.003l0.003-0.004c1.206,2.469,1.269,5.215,1.269,5.215s0.652,6.495-4.95,11.231
	c1.139,0.389,2.354,0.61,3.623,0.61c0.005,0,0.009-0.002,0.016-0.002c0.004,0,0.009,0.002,0.014,0.002
	c1.283,0,2.516-0.217,3.664-0.614c-1.475-1.237-2.694-2.77-3.552-4.514c0.406-0.626,1.245-3.208,1.39-4.074
	c1.336,6.838,7.236,8.489,7.426,8.537c-2.411,2.046-5.533,3.282-8.941,3.286c-2.253-0.003-5.861-0.637-8.869-3.225
	c2.611-0.625,7.779-4.782,7.573-10.629c-0.03-0.901-0.106-1.779-0.308-2.618c-7.274,2.231-13.658,10.128-12.481,18.66h-2.742
	C31.931,25.715,34.905,13.149,49.388,10.033"/>
<path fill="#B0B0B0" d="M41.156,4.788c-0.356,0.137-1.247,0.617-1.534,1.267c0.589-2.795-1.932-4.5-3.221-5.987V0
	c-0.014,0.006-0.027,0.027-0.027,0.034C36.346,0.027,36.346,0.006,36.332,0v0.068c-1.301,1.487-3.822,3.192-3.219,5.987
	c-0.288-0.65-1.178-1.13-1.535-1.267c-1.384,2.124-0.179,4.096,0.863,4.994c1.782,1.529,3.248,1.988,3.891,3.72v0.124
	c0.015-0.02,0.015-0.034,0.042-0.062c0,0.028,0.014,0.042,0.027,0.062v-0.124c0.644-1.732,2.123-2.191,3.892-3.72
	C41.321,8.884,42.526,6.912,41.156,4.788"/>
<path fill="#B0B0B0" d="M45.35,6.813c0,0-4.195,1.712-4.244,5.582C41.106,12.395,45.307,11.456,45.35,6.813"/>
<path fill="#B0B0B0" d="M27.484,6.813c0,0,4.196,1.712,4.244,5.582C31.729,12.395,27.527,11.456,27.484,6.813"/>
<rect x="27.572" y="31.513" fill="#B0B0B0" width="17.582" height="1.474"/>
<rect x="23.441" y="33.657" fill="#B0B0B0" width="25.841" height="4.334"/>
</svg>
