<?xml version="1.0" encoding="utf-8"?>
<!-- Generator: Adobe Illustrator 15.0.0, SVG Export Plug-In  -->
<!DOCTYPE svg PUBLIC "-//W3C//DTD SVG 1.1//EN" "http://www.w3.org/Graphics/SVG/1.1/DTD/svg11.dtd" [
	<!ENTITY ns_flows "http://ns.adobe.com/Flows/1.0/">
]>
<svg version="1.1"
	 xmlns="http://www.w3.org/2000/svg" xmlns:xlink="http://www.w3.org/1999/xlink" xmlns:a="http://ns.adobe.com/AdobeSVGViewerExtensions/3.0/"
	 x="0px" y="0px" width="81px" height="60px" viewBox="0 0 81 60" enable-background="new 0 0 81 60" xml:space="preserve">
<defs>
</defs>
<path d="M0,43.288v-1.222c0-0.448,0.05-0.756,0.149-0.922c0.133-0.225,0.345-0.458,0.636-0.697c0.091-0.075,0.361-0.275,0.809-0.598
	c0.233-0.108,0.349-0.2,0.349-0.274v-0.784h0.685v3.861h0.685v0.636H0z M0.934,38.13l-0.573-0.574l0.611-0.61l0.573,0.561
	L0.934,38.13z M1.943,42.652v-2.106c-0.191,0.042-0.432,0.162-0.722,0.362c-0.366,0.266-0.548,0.522-0.548,0.772v0.972H1.943z
	 M1.557,37.506l0.573,0.586l0.598-0.598L2.155,36.92L1.557,37.506z"/>
<path d="M2.915,43.287v-0.636h1.184v-2.928h0.71v3.563H2.915z M3.699,45.553l-0.56-0.572l0.597-0.611l0.586,0.573L3.699,45.553z
	 M4.322,44.943l0.585,0.573l0.598-0.598L4.92,44.346L4.322,44.943z"/>
<path d="M6.377,39.625c0.033,0.05,0.042,0.175,0.025,0.374c0.274,0.033,0.615,0.073,1.021,0.124c0.98,0.141,1.69,0.673,2.131,1.595
	c0.19,0.341,0.286,0.54,0.286,0.597v0.985H6.29c-0.033,0-0.137,0.027-0.311,0.087v-0.834c0.091,0.041,0.194,0.075,0.311,0.099h2.989
	c-0.074-0.373-0.265-0.715-0.573-1.021c-0.398-0.414-0.901-0.626-1.507-0.636c0.017,0-0.118,0.006-0.405,0.014
	c-0.286,0.008-0.504,0.012-0.654,0.012c-0.016-0.075-0.024-0.191-0.024-0.348c0-0.142,0.02-0.346,0.062-0.61
	c0.05-0.317,0.104-0.474,0.162-0.474C6.356,39.595,6.369,39.608,6.377,39.625"/>
<path d="M13.378,43.821c0,0.168-0.129,0.434-0.387,0.798c-0.124,0.176-0.382,0.37-0.772,0.585c-0.391,0.217-0.693,0.329-0.909,0.338
	c-0.266-0.009-0.399-0.037-0.399-0.088c0-0.024,0.05-0.059,0.149-0.099c0.183-0.084,0.333-0.154,0.449-0.212
	c0.764-0.408,1.146-0.835,1.146-1.284v-0.572h-1.694v-0.821c0-0.233,0.349-0.744,1.046-1.532c0.415-0.458,0.835-0.914,1.258-1.37
	c0.017-0.017,0.042-0.017,0.075,0c0.025,0.015,0.038,0.036,0.038,0.061v3.028H14v0.635h-0.622V43.821z M12.656,41.194
	c-0.158,0.174-0.32,0.35-0.486,0.523c-0.274,0.323-0.453,0.635-0.535,0.935h1.021V41.194z"/>
<path d="M16.405,39.811c0.531-0.008,1.017,0.154,1.457,0.486c0.332,0.248,0.506,0.44,0.523,0.572
	c-0.008,0.092-0.017,0.176-0.025,0.25c-0.033,0.174-0.087,0.303-0.161,0.386c-0.175,0.191-0.349,0.384-0.524,0.579
	c-0.174,0.196-0.39,0.384-0.647,0.567h2.279v0.635h-2.13c-0.341,0-0.565-0.074-0.673-0.225c-0.249,0.15-0.54,0.225-0.872,0.225
	h-2.067v-0.635h2.055c0.116-0.018,0.253-0.06,0.411-0.125c-0.158-0.199-0.311-0.398-0.461-0.599
	c-0.332-0.374-0.635-0.551-0.909-0.536c-0.092,0.01-0.183-0.031-0.274-0.124c-0.092-0.091-0.137-0.183-0.137-0.273
	c0-0.075,0.029-0.17,0.087-0.287c0.05-0.074,0.093-0.149,0.131-0.223c0.037-0.075,0.247-0.195,0.629-0.362
	C15.562,39.923,15.998,39.821,16.405,39.811 M15.321,40.77c0.465,0.383,0.897,0.852,1.295,1.408c0.15-0.084,0.368-0.264,0.654-0.543
	c0.287-0.278,0.459-0.482,0.517-0.617c-0.257-0.272-0.602-0.435-1.034-0.484c-0.174-0.018-0.344-0.024-0.51-0.024
	C15.711,40.509,15.404,40.595,15.321,40.77"/>
<polygon points="20.453,43.287 18.734,43.287 18.734,42.652 19.543,42.652 19.543,39.687 20.166,39.687 20.166,42.652 
	20.453,42.652 "/>
<polygon points="23.268,43.287 19.905,43.287 19.905,42.652 20.702,42.652 20.702,39.674 21.325,39.674 21.325,42.652 
	21.935,42.652 21.935,39.674 22.558,39.674 22.558,42.652 23.268,42.652 "/>
<polygon points="24.29,34.456 24.29,43.288 22.906,43.288 22.906,42.651 23.604,42.651 23.604,34.456 "/>
<polygon points="26.581,34.417 26.407,34.642 26.407,43.287 25.721,43.287 25.721,34.417 "/>
<path d="M32.025,43.287c-0.191-0.059-0.42-0.133-0.685-0.225c-0.216-0.116-0.405-0.374-0.567-0.773
	c-0.162-0.397-0.243-0.775-0.243-1.133c0-0.332,0.228-0.816,0.685-1.457c0.299-0.481,0.498-0.722,0.598-0.722
	c0.058,0.025,0.087,0.067,0.087,0.124c0,0.033-0.116,0.243-0.348,0.629c-0.233,0.387-0.362,0.695-0.387,0.928
	c-0.049,0.407,0.046,0.851,0.287,1.327c0.241,0.478,0.469,0.716,0.685,0.716h6.004v-0.485c0-0.124-0.004-0.191-0.014-0.199
	c-0.008-0.008-0.078-0.013-0.211-0.013H37.38c-0.165,0-0.331-0.07-0.497-0.213c-0.216-0.189-0.324-0.447-0.324-0.771
	c0-0.265,0.104-0.523,0.312-0.771c0.082-0.101,0.395-0.411,0.935-0.935c0.224-0.216,0.447-0.431,0.672-0.648
	c0.158-0.19,0.258-0.336,0.299-0.436c0.008-0.008,0.054-0.025,0.137-0.049v5.106H32.025z M37.331,38.603l-0.66-0.635l0.685-0.71
	l0.685,0.672L37.331,38.603z M37.269,40.845c-0.008,0.59,0.253,0.885,0.785,0.885h0.087v-2.007c-0.108,0-0.28,0.147-0.518,0.443
	C37.387,40.461,37.269,40.687,37.269,40.845"/>
<polygon points="41.479,34.417 41.304,34.642 41.304,43.287 40.619,43.287 40.619,34.417 "/>
<path d="M48.542,43.287h-5.344v-0.635h3.938l-1.01-1.769H43.51v-0.748h2.977c0.124,0.174,0.34,0.493,0.648,0.96l0.884,1.557h0.522
	V43.287z"/>
<polygon points="49.7,43.287 47.981,43.287 47.981,42.652 48.792,42.652 48.792,39.687 49.414,39.687 49.414,42.652 49.7,42.652 "/>
<path d="M48.143,43.287v-0.635h0.648v-1.993h0.622v0.324h4.023c0.066,0,0.229,0.049,0.486,0.148
	c0.664,0.257,1.038,0.765,1.121,1.521v0.635H48.143z M54.608,42.652c-0.008-0.316-0.197-0.583-0.566-0.805
	c-0.369-0.22-0.809-0.328-1.314-0.328h-3.313v1.133H54.608z"/>
<path d="M55.878,33.807v-0.523h0.498c-0.024-0.05-0.104-0.145-0.237-0.286c-0.115-0.116-0.174-0.194-0.174-0.236
	c0-0.018,0.037-0.085,0.112-0.206s0.125-0.186,0.149-0.193c0.009,0,0.046,0.016,0.112,0.044s0.124,0.043,0.174,0.043h0.523
	c0.041,0,0.166-0.045,0.374-0.136c0.041,0,0.062,0.029,0.062,0.086c0,0.034-0.032,0.092-0.1,0.175
	c-0.065,0.107-0.145,0.188-0.236,0.237c-0.133,0.025-0.291,0.067-0.474,0.124l0.212,0.349h0.66v0.523H55.878z"/>
<polygon points="57.298,34.417 57.125,34.642 57.125,43.287 56.439,43.287 56.439,34.417 "/>
<path d="M62.53,41.929c-0.464-0.582-0.897-0.864-1.295-0.848c-0.093,0.01-0.184-0.032-0.274-0.125
	c-0.092-0.091-0.137-0.183-0.137-0.273c0-0.075,0.029-0.17,0.087-0.286c0.05-0.075,0.094-0.149,0.131-0.225s0.247-0.195,0.629-0.361
	c0.465-0.199,0.901-0.303,1.309-0.312c0.53-0.008,1.033,0.154,1.507,0.486c0.374,0.267,0.561,0.456,0.561,0.573
	c0,0.091-0.009,0.17-0.024,0.236c-0.034,0.183-0.089,0.314-0.162,0.398c-0.158,0.174-0.357,0.319-0.599,0.436
	c-0.323,0.168-0.564,0.308-0.723,0.424l0.71,0.623l1.421-0.024v0.635h-1.607l-1.033-0.835c-1.113,0.482-1.646,1.01-1.596,1.581
	c0.059,0.624,0.395,1.13,1.01,1.521c0.548,0.355,1.179,0.543,1.894,0.56c0.448,0.008,0.98-0.017,1.594-0.074
	c0.183-0.017,0.274,0.017,0.274,0.1c0,0.092-0.11,0.174-0.33,0.249s-0.33,0.125-0.33,0.149c0.018-0.033-0.129,0-0.436,0.1
	c-0.018,0.008-0.104,0.05-0.263,0.124c-0.058,0.024-0.187,0.038-0.386,0.038c-0.88-0.008-1.644-0.225-2.292-0.648
	c-0.756-0.498-1.134-1.162-1.134-1.992c0-0.489,0.142-0.946,0.424-1.37c0.091-0.133,0.241-0.274,0.448-0.424
	C62.115,42.215,62.322,42.07,62.53,41.929 M61.708,40.496c0.033,0.034,0.291,0.229,0.773,0.586c0.281,0.216,0.469,0.388,0.56,0.512
	c0.249-0.135,0.494-0.267,0.735-0.399c0.364-0.2,0.572-0.356,0.623-0.473c-0.282-0.282-0.641-0.449-1.071-0.498
	c-0.142-0.018-0.291-0.025-0.449-0.025C62.19,40.198,61.798,40.297,61.708,40.496"/>
<path d="M65.17,43.288v-0.637h0.984v-2.852h0.636v2.852h2.379v0.637H65.17z M66.454,39.101l-0.722-0.698l0.746-0.76l0.724,0.723
	L66.454,39.101z"/>
<polygon points="70.453,43.287 68.733,43.287 68.733,42.652 69.543,42.652 69.543,39.687 70.166,39.687 70.166,42.652 
	70.453,42.652 "/>
<path d="M69.642,43.287v-2.628h0.523v0.324h4.023c0.065,0,0.228,0.049,0.485,0.148c0.664,0.257,1.038,0.765,1.121,1.521h0.598v0.635
	H69.642z M75.36,42.652c-0.009-0.316-0.197-0.583-0.567-0.805c-0.369-0.22-0.808-0.328-1.313-0.328h-3.313v1.133H75.36z"/>
<path d="M78.262,42.652c0.083,0,0.129-0.05,0.137-0.15c0.017-0.182,0.057-0.336,0.118-0.46c0.063-0.125,0.182-0.254,0.355-0.387
	c0.216-0.175,0.432-0.267,0.647-0.273c0.44-0.025,0.826,0.265,1.158,0.871c0.258,0.474,0.396,0.905,0.411,1.296
	c0.025,0.515-0.265,0.772-0.871,0.772c-0.258,0-0.573-0.154-0.947-0.461c-0.208-0.191-0.411-0.383-0.609-0.573h-2.529v-0.635H78.262
	z M80.392,43.212c-0.257-0.74-0.535-1.11-0.835-1.11c-0.058,0-0.12,0.018-0.187,0.052c-0.166,0.082-0.249,0.24-0.249,0.473
	c0,0.058,0.009,0.111,0.024,0.162c0.051,0.182,0.121,0.314,0.212,0.398c0.042,0.041,0.184,0.146,0.425,0.312
	c0.174,0.117,0.377,0.19,0.609,0.224c0,0.042,0.008-0.028,0.025-0.212C80.425,43.394,80.417,43.294,80.392,43.212"/>
<path fill="#BCBCBC" d="M3.942,53.192h-1.22v-0.055c0.235-0.048,0.352-0.181,0.352-0.379c0-0.091-0.034-0.242-0.11-0.449
	c-0.056-0.159-0.111-0.296-0.159-0.454H1.254L0.73,53.281c-0.2-0.021-0.365-0.165-0.365-0.365c0-0.063,0.013-0.124,0.041-0.199
	l1.482-3.972h0.566L3.942,53.192z M2.681,51.448l-0.607-1.8l-0.661,1.8H2.681z"/>
<path fill="#BCBCBC" d="M7.691,52.964v0.007C7.408,53.15,7.078,53.24,6.698,53.24c-0.523,0-0.992-0.199-1.413-0.594l0.29-0.461
	c0.379,0.324,0.758,0.482,1.123,0.482c0.235,0,0.435-0.062,0.607-0.18c0.186-0.131,0.283-0.31,0.283-0.536
	c0-0.276-0.187-0.49-0.566-0.643l-1.061-0.392c-0.379-0.214-0.565-0.532-0.565-0.966c0-0.771,0.482-1.207,1.254-1.207h1.31
	l0.124,0.959l-0.062,0.034c-0.241-0.352-0.6-0.523-1.082-0.523c-0.559,0-0.841,0.213-0.841,0.634c0,0.234,0.193,0.421,0.572,0.558
	c0.641,0.228,0.993,0.366,1.068,0.414c0.379,0.234,0.573,0.586,0.573,1.056C8.312,52.309,8.105,52.674,7.691,52.964"/>
<path fill="#BCBCBC" d="M12.868,52.474c-0.304,0.476-0.759,0.718-1.358,0.718h-0.965c-0.338,0-0.504-0.152-0.504-0.455v-3.475
	c0-0.255-0.117-0.406-0.358-0.461v-0.057h1.737c0.572,0,1.027,0.222,1.365,0.669c0.303,0.406,0.455,0.903,0.455,1.495
	C13.239,51.551,13.115,52.074,12.868,52.474 M11.157,49.159h-0.462v3.434c0,0.124,0.076,0.185,0.235,0.185h0.489
	c0.738,0,1.11-0.606,1.11-1.819C12.529,49.759,12.074,49.159,11.157,49.159"/>
<path fill="#BCBCBC" d="M18.07,53.192h-1.22v-0.055c0.235-0.048,0.352-0.181,0.352-0.379c0-0.091-0.034-0.242-0.11-0.449
	c-0.056-0.159-0.111-0.296-0.159-0.454h-1.551l-0.524,1.426c-0.2-0.021-0.365-0.165-0.365-0.365c0-0.063,0.013-0.124,0.041-0.199
	l1.482-3.972h0.566L18.07,53.192z M16.809,51.448l-0.607-1.8l-0.661,1.8H16.809z"/>
<path fill="#BCBCBC" d="M22.268,49.51h-0.055c-0.069-0.242-0.227-0.357-0.469-0.357h-1.33v1.592h1.385v0.399h-1.385v2.048h-0.221
	c-0.283,0-0.42-0.151-0.42-0.448v-3.496c0-0.228-0.117-0.379-0.359-0.447v-0.063h2.854V49.51z"/>
<path fill="#BCBCBC" d="M28.684,52.964v0.007c-0.283,0.179-0.613,0.269-0.992,0.269c-0.524,0-0.993-0.199-1.414-0.594l0.29-0.461
	c0.379,0.324,0.758,0.482,1.124,0.482c0.234,0,0.434-0.062,0.606-0.18c0.186-0.131,0.283-0.31,0.283-0.536
	c0-0.276-0.187-0.49-0.566-0.643l-1.061-0.392c-0.379-0.214-0.565-0.532-0.565-0.966c0-0.771,0.482-1.207,1.254-1.207h1.31
	l0.124,0.959l-0.062,0.034c-0.241-0.352-0.6-0.523-1.082-0.523c-0.558,0-0.841,0.213-0.841,0.634c0,0.234,0.193,0.421,0.572,0.558
	c0.641,0.228,0.993,0.366,1.068,0.414c0.379,0.234,0.573,0.586,0.573,1.056C29.305,52.309,29.098,52.674,28.684,52.964"/>
<path fill="#BCBCBC" d="M34.204,53.192h-1.22v-0.055c0.235-0.048,0.352-0.181,0.352-0.379c0-0.091-0.035-0.242-0.11-0.449
	c-0.056-0.159-0.111-0.296-0.159-0.454h-1.551l-0.524,1.426c-0.2-0.021-0.365-0.165-0.365-0.365c0-0.063,0.013-0.124,0.041-0.199
	l1.482-3.972h0.566L34.204,53.192z M32.943,51.448l-0.607-1.8l-0.661,1.8H32.943z"/>
<path fill="#BCBCBC" d="M38.794,51.661c0,0.477-0.152,0.855-0.462,1.152c-0.311,0.295-0.696,0.439-1.172,0.439
	c-0.455,0-0.834-0.15-1.145-0.447c-0.303-0.304-0.455-0.684-0.455-1.145v-2.433c0-0.229-0.11-0.372-0.338-0.427v-0.057h0.993v2.84
	c0,0.745,0.331,1.117,0.993,1.117c0.668,0,1.054-0.44,1.054-1.131v-2.819h0.531V51.661z"/>
<path fill="#BCBCBC" d="M43.536,52.474c-0.303,0.476-0.758,0.718-1.357,0.718h-0.966c-0.338,0-0.503-0.152-0.503-0.455v-3.475
	c0-0.255-0.117-0.406-0.358-0.461v-0.057h1.736c0.573,0,1.028,0.222,1.366,0.669c0.303,0.406,0.455,0.903,0.455,1.495
	C43.909,51.551,43.785,52.074,43.536,52.474 M41.827,49.159h-0.462v3.434c0,0.124,0.076,0.185,0.234,0.185h0.488
	c0.738,0,1.11-0.606,1.11-1.819C43.198,49.759,42.743,49.159,41.827,49.159"/>
<path fill="#BCBCBC" d="M46.292,53.205h-0.227c-0.283,0-0.422-0.158-0.422-0.468v-3.516c0-0.241-0.116-0.381-0.351-0.421v-0.056
	h0.999V53.205z"/>
<path fill="#BCBCBC" d="M53.515,49.51h-0.056c-0.068-0.242-0.228-0.357-0.468-0.357h-1.33v1.592h1.385v0.399h-1.385v2.048H51.44
	c-0.282,0-0.42-0.151-0.42-0.448v-3.496c0-0.228-0.118-0.379-0.358-0.447v-0.063h2.854V49.51z"/>
<path fill="#BCBCBC" d="M57.801,53.192h-1.219v-0.055c0.233-0.048,0.351-0.181,0.351-0.379c0-0.091-0.034-0.242-0.11-0.449
	c-0.056-0.159-0.109-0.296-0.158-0.454h-1.552l-0.522,1.426c-0.2-0.021-0.366-0.165-0.366-0.365c0-0.063,0.014-0.124,0.041-0.199
	l1.483-3.972h0.564L57.801,53.192z M56.541,51.448l-0.607-1.8l-0.661,1.8H56.541z"/>
<path fill="#BCBCBC" d="M62.33,49.703l-0.062,0.035c-0.255-0.366-0.601-0.551-1.021-0.551c-0.489,0-0.854,0.179-1.096,0.543
	c-0.2,0.312-0.304,0.725-0.304,1.233c0,0.429,0.076,0.801,0.234,1.11c0.2,0.408,0.489,0.615,0.861,0.615
	c0.228,0,0.428-0.036,0.593-0.104c0.139-0.048,0.312-0.15,0.518-0.311l0.255,0.408c-0.448,0.364-0.944,0.544-1.476,0.544
	c-0.51,0-0.944-0.241-1.296-0.725c-0.31-0.447-0.469-0.938-0.469-1.468c0-0.6,0.152-1.117,0.449-1.551
	c0.337-0.49,0.799-0.738,1.378-0.738h1.31L62.33,49.703z"/>
<path fill="#BCBCBC" d="M66.748,49.228h-1.254v3.405c0,0.289,0.117,0.455,0.357,0.504v0.054h-1.007v-3.963h-1.191v-0.483h3.095
	V49.228z"/>
<path fill="#BCBCBC" d="M71.241,52.5c-0.364,0.505-0.841,0.753-1.434,0.753c-0.586,0-1.062-0.256-1.427-0.759
	c-0.324-0.447-0.489-0.979-0.489-1.592c0-0.6,0.165-1.109,0.496-1.544c0.365-0.476,0.834-0.71,1.42-0.71s1.061,0.234,1.427,0.702
	c0.331,0.435,0.497,0.952,0.497,1.552C71.731,51.509,71.565,52.04,71.241,52.5 M70.724,49.772c-0.227-0.407-0.538-0.613-0.917-0.613
	s-0.682,0.206-0.91,0.613c-0.186,0.339-0.283,0.718-0.283,1.131c0,0.51,0.118,0.944,0.346,1.295
	c0.255,0.379,0.545,0.573,0.854,0.573c0.386,0,0.689-0.228,0.917-0.683c0.187-0.364,0.275-0.759,0.275-1.186
	C71.006,50.49,70.91,50.111,70.724,49.772"/>
<path fill="#BCBCBC" d="M76.292,53.191h-0.764l-1.138-2.013h-0.304v2.027h-0.173c-0.31,0-0.469-0.165-0.469-0.496v-3.461
	c0-0.255-0.117-0.4-0.351-0.447v-0.063h1.834c0.364,0,0.668,0.117,0.909,0.358c0.249,0.235,0.372,0.531,0.372,0.882
	c0,0.318-0.103,0.594-0.303,0.821c-0.2,0.221-0.462,0.345-0.772,0.373L76.292,53.191z M75.355,49.462
	c-0.138-0.146-0.303-0.222-0.49-0.222h-0.778v1.447c0.262,0.008,0.47,0.008,0.62,0.008h0.311c0.111,0,0.228-0.068,0.358-0.207
	c0.132-0.132,0.193-0.311,0.193-0.529C75.569,49.772,75.5,49.607,75.355,49.462"/>
<path fill="#BCBCBC" d="M80.765,48.745l-1.344,2.447v1.441c0,0.255,0.124,0.42,0.366,0.495v0.063h-1.007v-2.056l-1.344-2.392h0.386
	c0.172,0,0.303,0.042,0.393,0.132c0.048,0.047,0.13,0.165,0.234,0.352l0.745,1.351l1.006-1.834H80.765z"/>
<polygon fill="#BCBCBC" points="49.625,10.884 46.588,3.829 42.66,1.061 41.677,0.615 35.067,3.293 32.389,5.527 29.978,8.92 
	27.746,12.581 26.854,16.331 26.854,18.653 27.031,21.332 28.014,24.278 29.443,27.136 31.675,29.102 34.979,31.869 39.534,32.851 
	44.535,32.494 46.854,31.689 50.071,30.083 51.767,28.298 54,23.922 54.267,20.528 53.911,17.402 51.945,14.009 48.641,12.224 "/>
<path d="M39.603,1.836c0.178,0.732,0.44,1.424,0.747,2.095c1.63-0.263,3.241-0.559,4.8-1.115l-2.491-1.755l-0.981-0.446
	l-2.312,0.936C39.475,1.594,39.566,1.686,39.603,1.836"/>
<path d="M33.146,16.264c0.433-0.954,1.126-1.753,1.608-2.679c0.003-0.007,0.007-0.012,0.011-0.017
	c-1.572-1.424-3.189-2.801-4.742-4.246c-0.083-0.079-0.124-0.166-0.134-0.254l-2.142,3.513l-0.495,2.077
	c2.004,0.614,3.976,1.315,5.933,2.059C33.101,16.593,33.069,16.433,33.146,16.264"/>
<path d="M34.91,25.58c-0.504-1.586-1.462-2.976-1.95-4.567c-1.987-0.272-3.978-0.513-5.988-0.577l0.059,0.897l0.983,2.945
	l1.429,2.859l1.161,1.022c1.503-0.743,2.961-1.559,4.4-2.411C34.963,25.704,34.931,25.647,34.91,25.58"/>
<path d="M38.705,26.823c-0.376-0.534-0.773-1.055-1.174-1.572c-2.028,1.253-4.079,2.465-6.211,3.536l0.355,0.315l3.305,2.766
	l0.763,0.165c1.148-1.662,2.249-3.353,3.391-5.018C38.979,27.031,38.816,26.982,38.705,26.823"/>
<path d="M49.449,27.561c-0.044,0.098-0.107,0.162-0.18,0.196c0.359,0.681,0.723,1.361,1.06,2.054l1.438-1.513l1.922-3.766
	c-0.59-0.355-1.186-0.699-1.796-1.007C51,24.824,50.092,26.117,49.449,27.561"/>
<path d="M54.089,18.971c-0.857,0.186-1.715,0.376-2.576,0.533c0.009,0.057,0.005,0.116-0.012,0.182
	c-0.201,0.782-0.501,1.552-0.585,2.36c-0.004,0.025-0.01,0.049-0.016,0.071c1.085,0.411,2.109,0.983,3.116,1.585l0.25-3.174
	L54.089,18.971z"/>
<path d="M49.28,15.205c0.476,1.256,1.369,2.317,2.086,3.44c0.88-0.156,1.751-0.348,2.625-0.538l-0.08-0.705l-1.966-3.393
	l-2.293-1.239c-0.116,0.78-0.27,1.552-0.45,2.318C49.233,15.118,49.26,15.156,49.28,15.205"/>
<path d="M48.88,22.473c-0.561-0.097-0.322-0.95,0.236-0.855c0.321,0.056,0.632,0.133,0.94,0.221
	c0.104-0.746,0.337-1.456,0.535-2.182c-0.439,0.064-0.882,0.118-1.326,0.152c-0.569,0.044-0.564-0.841,0-0.885
	c0.496-0.038,0.985-0.101,1.476-0.176c-0.603-0.917-1.275-1.799-1.758-2.784c-0.165,0.639-0.347,1.277-0.541,1.913
	c-0.164,0.546-1.02,0.313-0.853-0.235c0.33-1.096,0.64-2.193,0.882-3.303c-1.062,0.131-2.132,0.188-3.189,0.333
	c0.225,0.898,0.424,1.799,0.499,2.73c0.044,0.57-0.843,0.566-0.886,0c-0.029-0.354-0.078-0.705-0.141-1.052
	c-0.64,0.613-1.407,1.055-2.136,1.572c0.401,0.59,0.736,1.225,1.002,1.863c0.219,0.527-0.638,0.754-0.853,0.235
	c-0.587-1.401-1.586-2.812-2.923-3.575c-0.496-0.283-0.051-1.048,0.445-0.765c0.773,0.442,1.437,1.062,1.989,1.774
	c0.804-0.567,1.696-1.032,2.338-1.788c-0.203-0.905-0.47-1.799-0.688-2.7c-0.137-0.555,0.718-0.79,0.853-0.235
	c0.113,0.461,0.234,0.92,0.355,1.379c1.148-0.157,2.307-0.207,3.458-0.366c0.09-0.47,0.171-0.943,0.233-1.419l-0.188-0.102
	l0.236-0.323c0.011-0.1,0.025-0.201,0.033-0.302c0.028-0.287,0.273-0.429,0.499-0.423l0.214-0.291L46.588,3.83l-0.854-0.601
	c-0.002,0.175-0.093,0.351-0.3,0.426c-1.521,0.547-3.09,0.844-4.681,1.104c1.085,2.065,2.524,3.969,3.315,6.186
	c0.192,0.54-0.666,0.77-0.854,0.236c-0.309-0.865-0.717-1.68-1.161-2.476c-0.852,0.449-1.778,0.706-2.716,0.91
	c-0.018,0.004-0.036,0.005-0.055,0.007c0.852,1.219,1.609,2.506,2.196,3.913c0.219,0.527-0.639,0.755-0.854,0.235
	c-0.978-2.345-2.473-4.351-4.094-6.265c-0.945,1.304-2.204,2.349-3.081,3.705c1.966,1.736,3.93,3.472,5.683,5.433
	c0.38,0.425-0.245,1.054-0.627,0.627c-0.97-1.086-2.003-2.103-3.07-3.089c-0.476,0.863-1.116,1.628-1.524,2.531
	c-0.052,0.109-0.125,0.173-0.206,0.205c1.631,0.627,3.254,1.279,4.874,1.934c0.522,0.211,0.294,1.069-0.234,0.854
	c-2.65-1.072-5.304-2.135-7.996-3.087c-0.016,1.029-0.069,2.056-0.129,3.084c-0.002,0.031-0.008,0.058-0.013,0.085
	c2.905,0.309,5.789,0.828,8.701,1.103c0.563,0.053,0.569,0.939,0,0.886c-1.665-0.158-3.319-0.395-4.974-0.627
	c0.506,1.424,1.348,2.71,1.814,4.155c1.437-0.867,2.855-1.763,4.275-2.657c0.085-0.054,0.169-0.073,0.246-0.069
	c-0.008-0.094,0.031-0.189,0.144-0.247c1.037-0.537,2.224-0.879,3.088-1.696c0.273-0.256,0.685,0.154,0.411,0.411
	c-0.41,0.387-0.881,0.672-1.375,0.921c0.714,0.241,1.346,0.724,2.104,0.787c-0.013-0.444-0.014-0.889-0.014-1.333
	c0-0.571,0.886-0.571,0.886,0c0,0.896,0.007,1.788,0.09,2.679c0.052,0.569-0.834,0.564-0.887,0c-0.022-0.254-0.04-0.508-0.053-0.762
	c-0.918-0.053-1.624-0.658-2.506-0.877c-0.125-0.031-0.187-0.116-0.202-0.213c-0.42,0.192-0.842,0.375-1.249,0.585
	c-0.022,0.012-0.045,0.02-0.067,0.027c0.077,0.184,0.049,0.415-0.168,0.551c-0.73,0.46-1.458,0.92-2.189,1.375
	c0.405,0.524,0.806,1.05,1.188,1.591c0.019,0.027,0.034,0.055,0.047,0.083c0.52-0.75,1.05-1.495,1.599-2.226
	c0.338-0.45,1.108-0.01,0.765,0.447c-1,1.331-1.938,2.703-2.866,4.085c1.586,0.014,3.165,0.186,4.753,0.205
	c-0.039-1.357-0.088-2.714-0.211-4.067c-0.054-0.569,0.834-0.564,0.885,0c0.047,0.506,0.081,1.011,0.109,1.518
	c0.955-0.025,1.848-0.334,2.765-0.588c-0.22-0.472-0.428-0.949-0.617-1.437c-0.207-0.533,0.65-0.762,0.853-0.235
	c0.36,0.928,0.797,1.821,1.251,2.703c0.623-1.318,1.453-2.517,2.277-3.717C50.376,22.846,49.652,22.605,48.88,22.473 M45.829,20.55
	c-0.371-0.029-0.373-0.611,0-0.581c0.996,0.08,1.993,0.048,2.993,0.045c0.374-0.001,0.374,0.58,0,0.581
	C47.822,20.598,46.825,20.631,45.829,20.55"/>
<path d="M44.593,27.307c0.072,1.699,0.088,3.404,0.173,5.106l2.088-0.725l2.742-1.368c-0.6-1.242-1.271-2.443-1.888-3.676
	C46.671,26.919,45.67,27.274,44.593,27.307"/>
<path d="M43.775,29.857c-1.79-0.021-3.567-0.237-5.358-0.202c-0.576,0.861-1.153,1.724-1.74,2.58l2.856,0.616l4.354-0.313
	c-0.045-0.895-0.07-1.788-0.094-2.686C43.785,29.853,43.781,29.857,43.775,29.857"/>
<path d="M29.468,16.312c-0.804-0.274-1.61-0.541-2.421-0.79l-0.192,0.809v2.322l0.059,0.899c0.01-0.001,0.019-0.003,0.029-0.002
	c0.8,0.024,1.598,0.077,2.392,0.149C29.401,18.571,29.459,17.442,29.468,16.312"/>
<path d="M30.649,8.696c0.701,0.653,1.416,1.291,2.134,1.926c0.913-1.348,2.185-2.396,3.109-3.734
	c0.017-0.025,0.036-0.045,0.056-0.065c-0.572-0.659-1.154-1.311-1.728-1.965c-0.375-0.428,0.248-1.057,0.626-0.627
	c1.369,1.56,2.754,3.098,3.975,4.748c0.045-0.103,0.136-0.186,0.283-0.218c0.862-0.189,1.721-0.412,2.507-0.824
	c-1.113-1.881-2.337-3.704-2.861-5.864c-0.025-0.106-0.016-0.2,0.019-0.278l-3.7,1.499L32.39,5.526l-2.185,3.076
	C30.345,8.551,30.509,8.565,30.649,8.696"/>
<path fill="#BCBCBC" d="M49.539,30.841c4.353-3.014,5.358-7.1,5.425-9.778c0.104-4.154-3.727-8.137-3.727-8.137
	c-1.431-1.039-0.582-1.905-0.582-1.905c-2.381-8.675-6.877-11.002-6.877-11.002c-5.29-0.264-8.407,2.296-10.982,4.233
	c-2.574,1.937-5.517,4.829-6.496,11.854c-1.139,8.172,4.093,13.531,7.367,15.47C37.284,33.72,44.929,34.034,49.539,30.841
	 M47.375,30.699c-8.357,3.546-13.753-0.476-13.753-0.476c-6.136-4.126-6.242-11.796-6.242-11.796
	c-0.157-7.67,6.137-12.854,6.137-12.854c6.189-5.131,9.997-4.655,9.997-4.655c3.015,2.116,4.495,5.289,4.495,5.289
	c2.117,3.757,1.8,6.612,1.8,6.612c-1.058-0.74-3.122-0.686-3.122-0.686c-8.092,0.37-7.986,7.14-7.986,7.14
	c0.265,6.242,5.766,5.66,5.766,5.66c4.444-0.37,5.079-4.549,5.079-4.549c-0.478-3.438-3.386-3.015-3.386-3.015
	c-3.069,0.423-2.964,3.121-2.964,3.121c1.323,1.693,2.434,0.476,2.434,0.476c1.005-1.799-0.687-1.905-0.687-1.905l-0.106,0.424
	c1.217,0.898-0.158,1.323-0.158,1.323c-0.794,0.052-0.848-0.952-0.848-0.952c0-1.694,2.486-2.011,2.486-2.011
	c2.275-0.053,2.539,2.592,2.539,2.592c-0.264,3.702-4.442,3.967-4.442,3.967c-5.025,0.212-5.025-5.078-5.025-5.078
	c0.476-6.559,7.299-6.612,7.299-6.612c6.771-0.106,6.771,7.882,6.771,7.882C53.512,27.842,47.375,30.699,47.375,30.699"/>
<path fill="#BCBCBC" d="M50.443,10.81c0,0-9.416-2.01-12.271,5.607c0,0-1.533,5.448,3.175,7.617c0,0-3.968-3.173-1.456-7.882
	c0,0,3.888-5.976,10.236-2.803L50.443,10.81z"/>
<path fill="#BCBCBC" d="M48.856,11.339c0,0-3.173-10.262-7.828-10.368l2.75-0.528l1.799,1.481l2.328,2.645l1.798,4.655l0.74,1.586
	L48.856,11.339z"/>
<path d="M42.739,56.114c-0.01,0.017-0.077,0.092-0.203,0.222c-0.084,0.094-0.134,0.141-0.149,0.141
	c-0.042,0-0.194-0.081-0.456-0.243c-0.142,0.152-0.226,0.229-0.252,0.229c-0.048,0-0.191-0.081-0.432-0.244
	c0.066-0.078,0.176-0.204,0.321-0.378c0.221,0.168,0.357,0.253,0.409,0.253c-0.011,0,0.083-0.085,0.282-0.253L42.739,56.114z
	 M43.572,59.047h-0.446c-0.027,0-0.054-0.014-0.08-0.04c-0.067-0.053-0.109-0.106-0.124-0.159c-0.023-0.106-0.06-0.267-0.111-0.484
	c-0.063,0.025-0.13,0.113-0.2,0.263s-0.15,0.229-0.239,0.239l-0.951-0.188v-0.086c0,0.031,0.078-0.194,0.235-0.676
	c0.036-0.11,0.184-0.241,0.439-0.394c0.174-0.094,0.336-0.193,0.488-0.299c-0.005-0.02-0.018-0.054-0.035-0.098
	c-0.019-0.044-0.028-0.075-0.028-0.09c0,0.015,0.113-0.172,0.338-0.56c0.059,0.412,0.162,1.028,0.315,1.847
	c0.015,0.068,0.094,0.104,0.236,0.104h0.163V59.047z M42.787,58.174v-0.118c0-0.083-0.037-0.279-0.11-0.589
	c-0.063,0.021-0.102,0.057-0.117,0.11c-0.047,0.137-0.142,0.246-0.283,0.329c-0.11,0.054-0.218,0.103-0.322,0.149
	c0.262,0.079,0.422,0.118,0.479,0.118H42.787z"/>
<path d="M45.592,59.047h-0.511c-0.073,0-0.153-0.054-0.243-0.157c-0.09-0.104-0.134-0.183-0.134-0.236l-0.22,0.394h-1.053v-0.621
	h1.193c0.017-0.026,0.037-0.144,0.063-0.352c-0.01-0.063-0.005-0.156,0.016-0.278c0.036-0.064,0.168-0.21,0.394-0.44
	c0.01,0.048,0.016,0.105,0.016,0.168c0,0.074-0.011,0.176-0.032,0.304c-0.021,0.128-0.031,0.216-0.031,0.264
	c0,0.175,0.129,0.287,0.386,0.335h0.156V59.047z M45.246,59.882c-0.078,0.12-0.195,0.263-0.352,0.431l-0.441-0.26
	c-0.204,0.173-0.293,0.26-0.267,0.26c-0.021,0-0.098-0.042-0.229-0.125s-0.209-0.138-0.235-0.165
	c0.067-0.107,0.181-0.247,0.338-0.418c0.094,0.094,0.231,0.186,0.416,0.276c0.141-0.142,0.237-0.232,0.29-0.273L45.246,59.882z"/>
<path d="M47.496,59.047H47.11c-0.094,0-0.188-0.058-0.282-0.169c-0.032-0.031-0.068-0.104-0.11-0.217l-0.221,0.386h-1.139v-0.621
	h1.28c0.037-0.064,0.054-0.168,0.052-0.312c-0.003-0.144,0.006-0.239,0.027-0.287c0.025-0.079,0.087-0.165,0.181-0.256
	c0.073-0.068,0.146-0.14,0.22-0.216l-0.063,0.743c0,0.043,0.003,0.069,0.008,0.08c0.01,0.063,0.05,0.121,0.118,0.171
	c0.067,0.051,0.122,0.076,0.166,0.076h0.148V59.047z M47.211,56.376c-0.052,0.082-0.153,0.201-0.306,0.36
	c-0.063,0.025-0.084,0.038-0.063,0.038c-0.054,0-0.216-0.084-0.487-0.251c-0.2,0.167-0.292,0.251-0.275,0.251
	c-0.011,0-0.047-0.013-0.11-0.04c-0.11-0.041-0.241-0.12-0.394-0.234c0.032-0.054,0.098-0.132,0.197-0.236
	c0.099-0.104,0.158-0.157,0.173-0.157c0.011,0,0.063,0.032,0.157,0.094c0.094,0.063,0.16,0.104,0.197,0.122
	c0.036,0.02,0.063,0.028,0.077,0.028c0.017,0,0.061-0.029,0.135-0.087c0.1-0.083,0.162-0.136,0.188-0.157L47.211,56.376z"/>
<path d="M49.398,59.046h-0.449c-0.01,0-0.042-0.01-0.094-0.031c-0.089-0.038-0.173-0.155-0.252-0.354L48.4,59.046h-1.063v-0.621
	h1.18c0.036-0.058,0.052-0.146,0.047-0.263s0.003-0.197,0.023-0.239c0.036-0.096,0.176-0.264,0.416-0.504v0.408
	c0,0.015-0.008,0.073-0.022,0.172c-0.016,0.098-0.024,0.152-0.024,0.163c0,0.176,0.105,0.263,0.315,0.263h0.126V59.046z
	 M48.91,56.54c0,0.026-0.016,0.055-0.047,0.086c-0.052,0.053-0.165,0.137-0.339,0.252c-0.051,0.016-0.073,0.023-0.063,0.023
	c-0.025,0-0.102-0.044-0.228-0.134c-0.147-0.104-0.22-0.181-0.22-0.228c0-0.026,0.018-0.057,0.055-0.094
	c0.12-0.126,0.223-0.221,0.306-0.283c0.037-0.027,0.066-0.04,0.087-0.04c0.021,0,0.102,0.063,0.24,0.193
	C48.841,56.445,48.91,56.518,48.91,56.54"/>
<path d="M52.25,59.047H51.78c-0.047,0-0.087,0.051-0.119,0.154c-0.031,0.102-0.068,0.157-0.11,0.168l-1.313-0.692
	c-0.036,0.038-0.088,0.119-0.157,0.241c-0.042,0.087-0.091,0.129-0.149,0.129h-0.684v-0.621h0.889c0.025,0,0.081-0.072,0.164-0.215
	c0.105-0.188,0.16-0.285,0.166-0.296c0.088-0.121,0.243-0.246,0.463-0.371c0.222-0.124,0.387-0.188,0.495-0.188
	c0.111,0,0.166,0.038,0.166,0.113v0.055v0.064c0,0.053,0.007,0.098,0.023,0.136c0.141,0.367,0.279,0.6,0.417,0.702h0.22V59.047z
	 M51.496,58.489v-0.055c0-0.095-0.026-0.19-0.078-0.291c-0.068-0.125-0.16-0.188-0.276-0.188c-0.229,0-0.379,0.06-0.446,0.181
	c0.114,0.073,0.229,0.144,0.345,0.212c0.168,0.105,0.291,0.157,0.37,0.157c0.015,0,0.032-0.002,0.051-0.008
	S51.491,58.489,51.496,58.489"/>
<path d="M53.854,58.355c-0.005,0-0.013,0.012-0.023,0.035c-0.011,0.024-0.021,0.036-0.032,0.036v0.621h-0.454
	c-0.049,0-0.098-0.026-0.146-0.077c-0.05-0.052-0.08-0.102-0.09-0.151c-0.132,0.152-0.229,0.229-0.291,0.229h-0.794v-0.621
	l1.014-0.016c0.059,0,0.097-0.067,0.118-0.204c0.005-0.074,0.011-0.147,0.015-0.222c0.095-0.131,0.266-0.316,0.512-0.558
	c0.006,0.089-0.019,0.221-0.07,0.393c-0.094,0.289-0.142,0.44-0.142,0.457c0.09,0.088,0.173,0.134,0.252,0.134
	c0.015,0,0.037-0.01,0.065-0.028C53.816,58.365,53.837,58.355,53.854,58.355"/>
<path d="M55.529,58.382c0,0.077-0.024,0.174-0.071,0.29c-0.1,0.234-0.152,0.354-0.157,0.358c-0.031,0.011-0.052,0.016-0.063,0.016
	l-0.811-0.014c-0.052-0.091-0.081-0.134-0.086-0.134c-0.01,0-0.037,0.023-0.078,0.073c-0.042,0.051-0.085,0.074-0.126,0.074h-0.542
	v-0.621h0.659c0.006-0.09,0.03-0.218,0.071-0.384c0.042-0.075,0.107-0.154,0.196-0.24c0.09-0.086,0.176-0.165,0.26-0.24
	l-0.149,0.664v0.2h0.503c-0.005-0.048-0.015-0.127-0.031-0.239c-0.021-0.095-0.031-0.149-0.031-0.159c0-0.017,0.06-0.1,0.181-0.248
	c0.12-0.149,0.212-0.253,0.275-0.313V58.382z"/>
<path d="M59.278,56.234c0,0.036-0.116,0.219-0.346,0.549c-0.005,0.006-0.021,0.008-0.047,0.008c-0.042,0-0.087-0.018-0.135-0.055
	c-0.035,0.221-0.084,0.415-0.142,0.584c-0.02,0.058-0.067,0.147-0.141,0.268c-0.073,0.121-0.11,0.188-0.11,0.197
	c0,0.011,0.019,0.047,0.055,0.111c0.11,0.194,0.166,0.404,0.166,0.63c0,0.164-0.017,0.337-0.048,0.521h-1.674
	c-0.079-0.043-0.118-0.175-0.118-0.396c0-0.196,0.029-0.365,0.086-0.508c0.027,0.038,0.064,0.088,0.111,0.15
	s0.112,0.094,0.196,0.094c0.126,0,0.377-0.172,0.755-0.516c-0.037-0.089-0.134-0.216-0.292-0.379
	c-0.157-0.163-0.288-0.276-0.393-0.34c-0.021,0.042-0.053,0.105-0.094,0.189c-0.021-0.017-0.27-0.161-0.747-0.434
	c-0.074-0.042-0.111-0.146-0.111-0.314c0-0.041,0.027-0.169,0.079-0.386h0.473c0.015-0.03,0.021-0.088,0.015-0.173
	c0.226,0.138,0.475,0.35,0.747,0.638s0.472,0.548,0.598,0.777c0.11-0.183,0.165-0.424,0.165-0.723c0-0.158-0.052-0.298-0.156-0.424
	l0.471-0.731c0,0.052,0.018,0.128,0.055,0.229c0.017,0.025,0.087,0.086,0.212,0.181C59.155,56.113,59.278,56.197,59.278,56.234
	 M58.201,58.417c-0.053-0.114-0.111-0.232-0.181-0.354c-0.146,0.168-0.271,0.287-0.369,0.354
	C57.845,58.439,58.028,58.439,58.201,58.417"/>
<path d="M60.567,57.873c0,0.463-0.107,0.854-0.322,1.174l-0.292-2.435c0-0.042,0.066-0.17,0.197-0.385
	c0.115-0.186,0.202-0.314,0.26-0.388L60.567,57.873z"/>
<path d="M65.338,57.899c0,0.305-0.113,0.682-0.339,1.132h-2.421c-0.016,0-0.03-0.004-0.047-0.012
	c-0.016-0.008-0.028-0.011-0.039-0.011c-0.095-0.006-0.206-0.063-0.334-0.169c-0.129-0.108-0.201-0.214-0.217-0.319
	c-0.005-0.016-0.008-0.067-0.008-0.156c0-0.164,0.037-0.376,0.109-0.638c0.085-0.283,0.166-0.445,0.244-0.487l0.032,0.023
	c0,0.058-0.01,0.167-0.028,0.327c-0.018,0.159-0.026,0.248-0.026,0.263c0,0.104,0.013,0.187,0.039,0.244s0.101,0.12,0.224,0.188
	c0.123,0.068,0.219,0.103,0.287,0.103h2.083c0.031-0.041,0.048-0.072,0.048-0.094c0-0.078-0.09-0.263-0.268-0.551L65,57.176
	c0.079,0.074,0.155,0.185,0.229,0.334C65.301,57.661,65.338,57.79,65.338,57.899 M64.411,56.468
	c-0.106,0.146-0.222,0.27-0.343,0.373l-0.442-0.234c-0.078,0.049-0.154,0.122-0.229,0.224c-0.157-0.063-0.319-0.145-0.487-0.244
	c0.193-0.235,0.312-0.354,0.354-0.354c0.016,0,0.081,0.037,0.195,0.11c0.116,0.073,0.182,0.11,0.196,0.11
	c0.012,0,0.051-0.029,0.119-0.088c0.089-0.072,0.147-0.117,0.173-0.133L64.411,56.468z"/>
<path d="M66.974,59.046h-0.89l-0.274-2.914c0-0.021,0.028-0.065,0.086-0.134c0.095-0.121,0.215-0.255,0.361-0.403
	c0.017,0.128,0.034,0.314,0.056,0.562c0.094,1.028,0.171,1.74,0.228,2.135c0.006,0.026,0.029,0.045,0.071,0.055
	c0.021,0.007,0.057,0.021,0.11,0.045c0.052,0.022,0.091,0.034,0.117,0.034h0.135V59.046z"/>
<path d="M70.943,59.046h-0.936c-0.021-0.196-0.044-0.351-0.071-0.462c-0.068-0.022-0.22-0.033-0.455-0.033
	c-0.193,0-0.319,0.003-0.378,0.008c-0.057,0.006-0.131,0.032-0.22,0.08c-0.131,0.075-0.262,0.15-0.394,0.225
	c-0.23,0.122-0.375,0.183-0.433,0.183h-1.312v-0.621h1.423c0.162,0,0.385-0.083,0.668-0.251c-0.482-0.199-0.789-0.299-0.92-0.299
	c-0.11,0-0.283,0.063-0.519,0.188c0.204-0.523,0.489-0.785,0.856-0.785c0.158,0,0.355,0.056,0.598,0.167
	c0.33,0.149,0.55,0.239,0.66,0.271c0.262,0.08,0.616,0.146,1.061,0.199c-0.052,0.117-0.109,0.285-0.173,0.502
	c0.006,0.006,0.123,0.008,0.354,0.008h0.189V59.046z M69.024,59.944c-0.005,0.02-0.064,0.092-0.18,0.216
	c-0.116,0.123-0.188,0.185-0.213,0.185c-0.026,0-0.114-0.043-0.264-0.13c-0.148-0.087-0.224-0.143-0.224-0.169
	c0-0.016,0.06-0.083,0.177-0.2c0.118-0.118,0.188-0.178,0.208-0.178c0.017,0,0.084,0.037,0.205,0.111
	C68.885,59.868,68.983,59.921,69.024,59.944"/>
<path d="M72.782,59.047h-0.385c-0.094,0-0.189-0.058-0.283-0.169c-0.031-0.031-0.069-0.104-0.11-0.217l-0.22,0.386h-1.14v-0.621
	h1.28c0.037-0.064,0.055-0.168,0.053-0.312c-0.003-0.144,0.006-0.239,0.026-0.287c0.026-0.079,0.086-0.165,0.182-0.256
	c0.072-0.068,0.146-0.14,0.22-0.216l-0.063,0.743c0,0.043,0.002,0.069,0.009,0.08c0.01,0.063,0.05,0.121,0.117,0.171
	c0.068,0.051,0.122,0.076,0.164,0.076h0.15V59.047z M72.499,56.376c-0.052,0.082-0.155,0.201-0.307,0.36
	c-0.063,0.025-0.083,0.038-0.063,0.038c-0.053,0-0.215-0.084-0.487-0.251c-0.199,0.167-0.291,0.251-0.274,0.251
	c-0.012,0-0.048-0.013-0.111-0.04c-0.109-0.041-0.24-0.12-0.393-0.234c0.032-0.054,0.097-0.132,0.196-0.236s0.156-0.157,0.174-0.157
	c0.01,0,0.062,0.032,0.156,0.094c0.095,0.063,0.159,0.104,0.196,0.122c0.037,0.02,0.063,0.028,0.079,0.028
	c0.017,0,0.061-0.029,0.134-0.087c0.1-0.083,0.162-0.136,0.189-0.157L72.499,56.376z"/>
<path d="M74.685,59.046h-0.449c-0.01,0-0.042-0.01-0.095-0.031c-0.088-0.038-0.172-0.155-0.251-0.354l-0.204,0.385h-1.063v-0.621
	h1.181c0.036-0.058,0.052-0.146,0.047-0.263c-0.006-0.117,0.002-0.197,0.023-0.239c0.036-0.096,0.175-0.264,0.416-0.504v0.408
	c0,0.015-0.007,0.073-0.022,0.172c-0.017,0.098-0.024,0.152-0.024,0.163c0,0.176,0.105,0.263,0.314,0.263h0.127V59.046z
	 M74.197,56.54c0,0.026-0.016,0.055-0.047,0.086c-0.052,0.053-0.165,0.137-0.338,0.252c-0.054,0.016-0.073,0.023-0.063,0.023
	c-0.026,0-0.102-0.044-0.228-0.134c-0.147-0.104-0.221-0.181-0.221-0.228c0-0.026,0.019-0.057,0.056-0.094
	c0.12-0.126,0.223-0.221,0.306-0.283c0.037-0.027,0.066-0.04,0.087-0.04c0.021,0,0.102,0.063,0.24,0.193
	C74.126,56.445,74.197,56.518,74.197,56.54"/>
<path d="M77.538,59.047h-0.472c-0.048,0-0.087,0.051-0.118,0.154c-0.032,0.102-0.068,0.157-0.109,0.168l-1.313-0.692
	c-0.036,0.038-0.09,0.119-0.157,0.241c-0.042,0.087-0.092,0.129-0.149,0.129h-0.684v-0.621h0.888c0.027,0,0.082-0.072,0.166-0.215
	c0.104-0.188,0.159-0.285,0.165-0.296c0.088-0.121,0.243-0.246,0.464-0.371c0.219-0.124,0.385-0.188,0.494-0.188
	c0.11,0,0.165,0.038,0.165,0.113v0.055v0.064c0,0.053,0.009,0.098,0.024,0.136c0.142,0.367,0.28,0.6,0.417,0.702h0.22V59.047z
	 M76.783,58.489v-0.055c0-0.095-0.026-0.19-0.078-0.291c-0.068-0.125-0.161-0.188-0.276-0.188c-0.229,0-0.379,0.06-0.447,0.181
	c0.115,0.073,0.23,0.144,0.346,0.212c0.168,0.105,0.291,0.157,0.37,0.157c0.015,0,0.031-0.002,0.051-0.008
	C76.765,58.491,76.778,58.489,76.783,58.489"/>
<path d="M79.196,59.046h-0.559c-0.036-0.024-0.063-0.083-0.078-0.173c-0.016-0.089-0.032-0.149-0.047-0.181
	c-0.053,0.078-0.142,0.194-0.267,0.354H77.31v-0.621h1.147l-0.283-1.937l0.479-0.664c0.021,0.141,0.041,0.318,0.063,0.53
	c0.042,0.416,0.1,1.046,0.173,1.889c0.006,0.122,0.074,0.182,0.204,0.182h0.103V59.046z"/>
<path d="M80.894,56.464c-0.021,0.053-0.068,0.121-0.142,0.205c-0.016,0.017-0.118,0.147-0.307,0.395
	c-0.011,0.017-0.016,0.04-0.016,0.072l0.134,1.089l-0.149,0.79c-0.011,0-0.028,0.006-0.052,0.017
	c-0.023,0.01-0.043,0.015-0.06,0.015H78.96v-0.62h1.163c0.015-0.08,0.023-0.142,0.023-0.19c0-0.095-0.023-0.272-0.07-0.531
	c-0.037-0.238-0.108-0.589-0.212-1.055l-0.229-0.183c0.147-0.302,0.294-0.555,0.441-0.761c0,0.109,0.018,0.194,0.055,0.253
	c0.021,0.031,0.131,0.109,0.33,0.235C80.603,56.292,80.748,56.38,80.894,56.464"/>
<path d="M3.57,58.471c-0.08,0.262-0.221,0.682-0.324,0.873c-0.158,0.035-0.635,0.149-1.044,0.149c-1.412,0-2.031-0.977-2.031-1.878
	c0-1.198,0.92-1.981,2.185-1.981c0.459,0,0.845,0.125,1.004,0.153c0.045,0.319,0.079,0.551,0.114,0.852l-0.165,0.045
	c-0.153-0.602-0.494-0.845-1.107-0.845c-0.947,0-1.452,0.8-1.452,1.662c0,1.061,0.624,1.787,1.487,1.787
	c0.578,0,0.885-0.313,1.168-0.874L3.57,58.471z"/>
<path d="M6.02,58.931c-0.357,0.442-0.749,0.545-0.925,0.545c-0.698,0-1.106-0.568-1.106-1.209c0-0.385,0.142-0.738,0.375-0.992
	c0.232-0.255,0.538-0.415,0.828-0.415h0.006c0.471,0,0.851,0.427,0.851,0.862c0,0.114-0.023,0.16-0.131,0.182
	c-0.091,0.018-0.805,0.073-1.486,0.098c0.005,0.771,0.453,1.089,0.851,1.089c0.233,0,0.442-0.091,0.652-0.284L6.02,58.931z
	 M4.459,57.768c0.318,0,0.635-0.006,0.965-0.017c0.102,0,0.136-0.029,0.136-0.114c0.005-0.295-0.187-0.567-0.506-0.567
	C4.799,57.07,4.544,57.309,4.459,57.768"/>
<path d="M9.497,59.408V59.26c0.335-0.034,0.398-0.058,0.398-0.46v-0.947c0-0.403-0.143-0.658-0.5-0.658
	c-0.204,0-0.42,0.12-0.635,0.295c0.011,0.068,0.016,0.137,0.016,0.238v1.107c0,0.356,0.052,0.391,0.363,0.425v0.147H7.926V59.26
	c0.351-0.034,0.402-0.063,0.402-0.438v-0.976c0-0.414-0.147-0.652-0.499-0.652c-0.221,0-0.448,0.153-0.618,0.295v1.333
	c0,0.369,0.051,0.403,0.329,0.438v0.147H6.343V59.26c0.374-0.034,0.425-0.068,0.425-0.438v-1.175c0-0.362-0.017-0.391-0.346-0.441
	v-0.132c0.25-0.044,0.533-0.118,0.789-0.231v0.459c0.119-0.078,0.238-0.182,0.414-0.282c0.147-0.092,0.284-0.16,0.46-0.16
	c0.272,0,0.516,0.176,0.636,0.472c0.164-0.131,0.328-0.233,0.47-0.324c0.119-0.079,0.266-0.147,0.431-0.147
	c0.437,0,0.721,0.313,0.721,0.868v1.095c0,0.38,0.04,0.403,0.368,0.438v0.147H9.497z"/>
<path d="M13.054,58.931c-0.357,0.442-0.749,0.545-0.925,0.545c-0.698,0-1.106-0.568-1.106-1.209c0-0.385,0.142-0.738,0.375-0.992
	c0.232-0.255,0.538-0.415,0.828-0.415h0.005c0.472,0,0.852,0.427,0.852,0.862c0,0.114-0.023,0.16-0.131,0.182
	c-0.091,0.018-0.806,0.073-1.487,0.098c0.006,0.771,0.454,1.089,0.852,1.089c0.232,0,0.442-0.091,0.652-0.284L13.054,58.931z
	 M11.494,57.768c0.318,0,0.635-0.006,0.964-0.017c0.103,0,0.137-0.029,0.137-0.114c0.005-0.295-0.187-0.567-0.505-0.567
	C11.835,57.07,11.579,57.309,11.494,57.768"/>
<path d="M15.011,59.408V59.26c0.335-0.034,0.375-0.079,0.375-0.471v-0.947c0-0.393-0.136-0.647-0.516-0.647
	c-0.228,0-0.449,0.143-0.619,0.289v1.334c0,0.385,0.034,0.408,0.369,0.442v0.147h-1.231V59.26c0.386-0.04,0.414-0.068,0.414-0.442
	v-1.17c0-0.362-0.034-0.385-0.34-0.441v-0.132c0.272-0.05,0.538-0.118,0.788-0.227v0.449c0.114-0.085,0.238-0.17,0.38-0.267
	c0.159-0.103,0.307-0.171,0.471-0.171c0.454,0,0.732,0.318,0.732,0.862v1.096c0,0.385,0.034,0.408,0.363,0.442v0.147H15.011z"/>
<path d="M17.524,59.403c-0.096,0.05-0.181,0.073-0.238,0.073c-0.357,0-0.556-0.228-0.556-0.676v-1.646h-0.392l-0.023-0.062
	l0.159-0.165h0.256V56.52l0.369-0.38l0.079,0.011v0.777h0.641c0.057,0.063,0.04,0.182-0.034,0.227h-0.607v1.453
	c0,0.46,0.188,0.545,0.334,0.545c0.142,0,0.273-0.057,0.347-0.097l0.051,0.147L17.524,59.403z"/>
<path d="M20.899,55.719c0.403,0,0.733,0.068,0.959,0.233c0.221,0.17,0.363,0.432,0.363,0.8c0,0.737-0.55,1.095-1.106,1.163
	c-0.085,0.011-0.193,0.011-0.255,0.006l-0.42-0.108v0.892c0,0.481,0.051,0.511,0.561,0.544v0.16h-1.537v-0.16
	c0.453-0.033,0.499-0.079,0.499-0.55v-2.27c0-0.5-0.046-0.521-0.465-0.551v-0.159H20.899z M20.44,57.626
	c0.074,0.029,0.226,0.068,0.414,0.068c0.369,0,0.822-0.199,0.822-0.921c0-0.611-0.391-0.872-0.856-0.872
	c-0.159,0-0.278,0.027-0.318,0.067c-0.046,0.035-0.062,0.103-0.062,0.267V57.626z"/>
<path d="M23.418,57.467c0.17-0.29,0.415-0.606,0.687-0.606c0.192,0,0.329,0.152,0.329,0.283c0,0.113-0.074,0.227-0.182,0.277
	c-0.068,0.029-0.113,0.023-0.147-0.011c-0.085-0.08-0.154-0.114-0.244-0.114c-0.148,0-0.329,0.165-0.454,0.483v1.038
	c0,0.374,0.028,0.409,0.465,0.442v0.148h-1.305V59.26c0.352-0.033,0.391-0.068,0.391-0.442v-1.176c0-0.373-0.022-0.396-0.351-0.436
	v-0.131c0.278-0.045,0.528-0.114,0.8-0.228v0.619H23.418z"/>
<path d="M27.095,58.125c0,0.914-0.67,1.352-1.231,1.352c-0.778,0-1.243-0.625-1.243-1.253c0-0.938,0.726-1.362,1.249-1.362
	C26.573,56.861,27.095,57.428,27.095,58.125 M25.148,58.041c0,0.714,0.307,1.248,0.777,1.248c0.352,0,0.641-0.261,0.641-1.038
	c0-0.659-0.266-1.203-0.771-1.203C25.456,57.047,25.148,57.399,25.148,58.041"/>
<path d="M30.288,59.26c-0.124,0.022-0.55,0.098-0.879,0.217v-0.37l-0.346,0.205c-0.227,0.13-0.38,0.165-0.443,0.165
	c-0.453,0-1.05-0.414-1.05-1.211c0-0.787,0.687-1.405,1.459-1.405c0.079,0,0.249,0.017,0.38,0.067v-0.811
	c0-0.37-0.028-0.387-0.437-0.415v-0.142c0.295-0.034,0.675-0.124,0.885-0.192v3.387c0,0.294,0.04,0.323,0.25,0.345l0.181,0.018
	V59.26z M29.409,57.366c-0.137-0.199-0.374-0.29-0.585-0.29c-0.266,0-0.743,0.215-0.743,1.038c0,0.676,0.415,1.004,0.784,1.004
	c0.198,0,0.407-0.09,0.544-0.192V57.366z"/>
<path d="M33.221,59.271c-0.125,0.018-0.284,0.052-0.437,0.092c-0.148,0.04-0.289,0.085-0.397,0.113l-0.034-0.034v-0.403
	c-0.13,0.097-0.256,0.199-0.42,0.295c-0.165,0.097-0.284,0.143-0.437,0.143c-0.38,0-0.703-0.232-0.703-0.846v-1.112
	c0-0.301-0.046-0.328-0.188-0.362l-0.158-0.034v-0.131c0.118-0.005,0.26-0.022,0.408-0.04c0.153-0.022,0.312-0.045,0.403-0.063
	c-0.017,0.177-0.017,0.442-0.017,0.823v0.766c0,0.506,0.244,0.641,0.499,0.641c0.204,0,0.42-0.084,0.613-0.271v-1.328
	c0-0.301-0.051-0.335-0.239-0.362l-0.203-0.034v-0.131c0.152-0.005,0.345-0.022,0.51-0.045c0.159-0.018,0.295-0.04,0.38-0.058v1.896
	c0,0.284,0.045,0.316,0.267,0.334l0.153,0.007V59.271z"/>
<path d="M35.604,58.897c-0.25,0.329-0.625,0.579-0.959,0.579c-0.715,0-1.141-0.579-1.141-1.186c0-0.438,0.194-0.817,0.573-1.106
	c0.296-0.228,0.636-0.324,0.846-0.324h0.005c0.233,0,0.42,0.074,0.511,0.153c0.074,0.062,0.091,0.107,0.091,0.171
	c0,0.118-0.125,0.244-0.187,0.244c-0.034,0-0.062-0.018-0.108-0.063c-0.17-0.159-0.369-0.232-0.573-0.232
	c-0.374,0-0.698,0.311-0.698,0.908c0,0.787,0.533,1.049,0.857,1.049c0.244,0,0.425-0.067,0.687-0.313L35.604,58.897z"/>
<path d="M37.039,59.403c-0.097,0.05-0.182,0.073-0.239,0.073c-0.357,0-0.556-0.228-0.556-0.676v-1.646h-0.391l-0.023-0.062
	l0.159-0.165h0.255V56.52l0.369-0.38l0.08,0.011v0.777h0.642c0.056,0.063,0.04,0.182-0.035,0.227h-0.606v1.453
	c0,0.46,0.188,0.545,0.334,0.545c0.143,0,0.272-0.057,0.348-0.097l0.051,0.147L37.039,59.403z"/>
<path d="M39.132,57.603c-0.114-0.341-0.307-0.561-0.585-0.561c-0.221,0-0.369,0.164-0.369,0.39c0,0.25,0.229,0.381,0.478,0.489
	c0.432,0.175,0.72,0.38,0.72,0.772c0,0.516-0.482,0.782-0.935,0.782c-0.29,0-0.552-0.107-0.647-0.193
	c-0.04-0.079-0.097-0.465-0.097-0.669l0.152-0.028c0.098,0.374,0.353,0.703,0.692,0.703c0.211,0,0.403-0.153,0.403-0.397
	c0-0.249-0.164-0.386-0.448-0.516c-0.341-0.153-0.709-0.347-0.709-0.778c0-0.396,0.34-0.736,0.862-0.736
	c0.232,0,0.386,0.05,0.5,0.101c0.051,0.126,0.112,0.466,0.125,0.604L39.132,57.603z"/>
</svg>
