<?xml version="1.0" encoding="utf-8"?>
<!-- Generator: Adobe Illustrator 15.0.0, SVG Export Plug-In  -->
<!DOCTYPE svg PUBLIC "-//W3C//DTD SVG 1.1//EN" "http://www.w3.org/Graphics/SVG/1.1/DTD/svg11.dtd" [
	<!ENTITY ns_flows "http://ns.adobe.com/Flows/1.0/">
]>
<svg version="1.1"
	 xmlns="http://www.w3.org/2000/svg" xmlns:xlink="http://www.w3.org/1999/xlink" xmlns:a="http://ns.adobe.com/AdobeSVGViewerExtensions/3.0/"
	 x="0px" y="0px" width="128px" height="38px" viewBox="0 0 128 38" enable-background="new 0 0 128 38" xml:space="preserve">
<defs>
</defs>
<polygon fill="#6D6D6D" points="16.831,21.343 19.832,0.371 34.471,15.105 "/>
<polygon fill="#7C7C7C" points="15.672,21.145 18.494,0 0.765,10.7 "/>
<polygon fill="#949494" points="0,11.445 13.284,21.313 0.359,28.13 "/>
<polygon fill="#AFAFAF" points="12.361,23.642 11.926,34.995 0.973,29.494 "/>
<polygon fill="#D0D0D0" points="13.36,34.696 20.505,29.349 13.827,25.979 "/>
<polyline fill="#E5E5E5" points="20.318,31.563 21.337,37.841 15.651,35.197 20.527,31.456 "/>
<path fill="#949494" d="M30.07,37.593c-0.498,0-1.128-0.111-1.674-0.415v-0.643c0.56,0.311,1.169,0.539,1.764,0.539
	c0.588,0,1.155-0.229,1.155-0.816c0-0.484-0.38-0.761-1.141-1.003l-0.312-0.104c-1.145-0.383-1.466-0.713-1.466-1.322
	c0-1.01,0.878-1.5,1.854-1.5c0.45,0,0.948,0.109,1.411,0.297v0.588c-0.47-0.187-0.954-0.367-1.467-0.367
	c-0.532,0-1.106,0.194-1.106,0.789c0,0.456,0.339,0.581,1.155,0.852l0.318,0.097c1.052,0.345,1.446,0.851,1.446,1.508
	C32.007,37.074,31.136,37.593,30.07,37.593"/>
<path fill="#949494" d="M36.153,37.157c-0.367,0.317-0.892,0.436-1.411,0.436s-1.045-0.118-1.412-0.429
	c-0.491-0.422-0.491-1.017-0.491-1.612v-3.099h0.692v3.224c0,0.401,0,0.81,0.318,1.101c0.228,0.207,0.56,0.297,0.893,0.297
	c0.332,0,0.664-0.09,0.899-0.297c0.311-0.291,0.311-0.699,0.311-1.101v-3.224h0.692v3.099
	C36.644,36.147,36.644,36.742,36.153,37.157"/>
<polygon fill="#949494" points="37.753,37.469 37.753,32.452 38.445,32.452 38.445,36.949 40.921,36.949 40.921,37.469 "/>
<path fill="#949494" d="M44.784,37.469l-0.527-1.398h-2.111l-0.51,1.398h-0.575l1.834-5.017h0.692l1.888,5.017H44.784z
	 M43.186,33.227l-0.85,2.326h1.726L43.186,33.227z"/>
<rect x="46.101" y="32.453" fill="#949494" width="0.692" height="5.016"/>
<polygon fill="#949494" points="51.857,37.469 51.857,33.229 50.543,37.115 49.851,37.115 48.474,33.233 48.474,37.469 47.9,37.469 
	47.9,32.452 48.889,32.452 50.249,36.287 51.546,32.452 52.549,32.452 52.549,37.469 "/>
<path fill="#949494" d="M56.89,37.469l-0.527-1.398h-2.111l-0.51,1.398h-0.575l1.834-5.017h0.691l1.889,5.017H56.89z M55.292,33.227
	l-0.85,2.326h1.726L55.292,33.227z"/>
<polygon fill="#949494" points="58.206,37.469 58.206,32.452 58.897,32.452 61.437,36.544 61.437,32.452 62.01,32.452 62.01,37.469 
	61.318,37.469 58.779,33.378 58.779,37.469 "/>
<path fill="#949494" d="M68.087,37.469l-0.525-1.398h-2.11l-0.511,1.398h-0.574l1.833-5.017h0.69l1.89,5.017H68.087z M66.49,33.227
	l-0.851,2.326h1.727L66.49,33.227z"/>
<polygon fill="#949494" points="69.404,37.469 69.404,32.452 70.097,32.452 70.097,36.949 72.573,36.949 72.573,37.469 "/>
<path fill="#949494" d="M75.309,35.4l1.666,2.067h-0.802l-1.619-2.001c-0.117,0.002-0.235,0.002-0.354,0.002h-0.312v1.999h-0.691
	v-5.015h1.169c0.644,0,1.28,0,1.736,0.38c0.339,0.284,0.471,0.685,0.471,1.086C76.573,34.216,76.508,35.165,75.309,35.4
	 M74.381,34.95c0.436,0,0.87-0.001,1.183-0.271c0.234-0.2,0.318-0.483,0.318-0.761c0-0.255-0.076-0.519-0.283-0.705
	c-0.277-0.243-0.665-0.243-1.052-0.243h-0.658v1.979H74.381z"/>
<path fill="#949494" d="M80.788,37.469l-0.526-1.398h-2.109l-0.512,1.398h-0.573l1.833-5.017h0.69l1.891,5.017H80.788z
	 M79.191,33.227l-0.851,2.326h1.727L79.191,33.227z"/>
<path fill="#949494" d="M83.765,37.185c-0.25,0.262-0.615,0.408-1.141,0.408c-0.326,0-0.671-0.056-1.003-0.165v-0.575
	c0.303,0.104,0.642,0.221,0.954,0.221c0.291,0,0.511-0.097,0.657-0.269c0.228-0.271,0.228-0.664,0.228-1.066v-3.286h0.692v3.142
	C84.152,36.188,84.15,36.781,83.765,37.185"/>
<polygon fill="#949494" points="88.374,37.469 88.374,35.221 85.953,35.221 85.953,37.469 85.261,37.469 85.261,32.452 
	85.953,32.452 85.953,34.701 88.374,34.701 88.374,32.452 89.066,32.452 89.066,37.469 "/>
<rect x="90.176" y="32.453" fill="#949494" width="0.691" height="5.016"/>
<path fill="#949494" d="M95.725,32.328c0.485,0,1.01,0.111,1.508,0.297v0.59c-0.505-0.194-1.016-0.368-1.508-0.368
	c-0.436,0-0.808,0.133-1.086,0.423c-0.414,0.43-0.483,1.079-0.483,1.694c0,0.608,0.069,1.258,0.483,1.688
	c0.278,0.289,0.65,0.421,1.045,0.421c0.554,0,1.059-0.269,1.549-0.539v0.644c-0.477,0.27-1.01,0.415-1.534,0.415
	c-1.396,0-2.305-0.988-2.305-2.629C93.394,33.317,94.284,32.328,95.725,32.328"/>
<path fill="#949494" d="M102.583,34.957c0,1.653-0.979,2.636-2.415,2.636c-1.458,0-2.413-1.008-2.413-2.636s0.966-2.629,2.413-2.629
	C101.617,32.328,102.583,33.329,102.583,34.957 M101.297,33.262c-0.299-0.283-0.713-0.415-1.129-0.415
	c-0.414,0-0.828,0.132-1.127,0.415c-0.436,0.437-0.525,1.079-0.525,1.695c0,0.623,0.09,1.266,0.525,1.702
	c0.299,0.283,0.713,0.415,1.127,0.415c0.416,0,0.83-0.132,1.129-0.415c0.436-0.437,0.525-1.079,0.525-1.702
	C101.822,34.341,101.732,33.698,101.297,33.262"/>
<polygon fill="#949494" points="103.374,37.469 103.374,32.452 104.066,32.452 104.066,36.949 106.543,36.949 106.543,37.469 "/>
<polygon fill="#949494" points="107.167,37.469 107.167,32.452 107.858,32.452 107.858,36.949 110.336,36.949 110.336,37.469 "/>
<polygon fill="#949494" points="110.96,37.469 110.96,32.452 114.267,32.452 114.267,32.972 111.651,32.972 111.651,34.521 
	113.762,34.521 113.762,35.04 111.651,35.04 111.651,36.949 114.35,36.949 114.35,37.469 "/>
<path fill="#949494" d="M117.223,32.328c0.519,0,1.073,0.118,1.598,0.305v0.573c-0.532-0.186-1.079-0.359-1.598-0.359
	c-0.457,0-0.858,0.132-1.155,0.423c-0.436,0.429-0.519,1.072-0.519,1.694c0,0.615,0.083,1.26,0.519,1.688
	c0.297,0.29,0.698,0.421,1.134,0.421c0.298,0,0.616-0.061,0.928-0.151v-1.321h-0.644v-0.52h1.335v2.187
	c-0.532,0.18-1.079,0.325-1.626,0.325c-1.449,0-2.407-0.993-2.407-2.629C114.787,33.303,115.75,32.328,117.223,32.328"/>
<polygon fill="#949494" points="119.646,37.469 119.646,32.452 122.953,32.452 122.953,32.972 120.339,32.972 120.339,34.521 
	122.448,34.521 122.448,35.04 120.339,35.04 120.339,36.949 123.036,36.949 123.036,37.469 "/>
<path fill="#949494" d="M125.183,37.593c-0.498,0-1.128-0.111-1.674-0.415v-0.643c0.561,0.311,1.169,0.539,1.763,0.539
	c0.59,0,1.156-0.229,1.156-0.816c0-0.484-0.381-0.761-1.141-1.003l-0.313-0.104c-1.145-0.383-1.466-0.713-1.466-1.322
	c0-1.01,0.878-1.5,1.854-1.5c0.448,0,0.947,0.109,1.411,0.297v0.588c-0.471-0.187-0.955-0.367-1.468-0.367
	c-0.531,0-1.105,0.194-1.105,0.789c0,0.456,0.339,0.581,1.154,0.852l0.318,0.097c1.052,0.345,1.446,0.851,1.446,1.508
	C127.12,37.074,126.248,37.593,125.183,37.593"/>
<path fill="#636363" d="M35.024,27.404c-0.343-0.823-0.675-1.533-0.881-2.013c-0.08-0.172-0.137-0.309-0.194-0.424
	c-0.468-1.028-0.674-1.246-1.006-1.246c-0.183,0-0.252,0.16-0.252,0.343c0,0.195,0.08,0.39,0.126,0.515
	c0.057,0.148,0.092,0.252,0.172,0.424c0.171,0.389,0.492,1.177,1.406,3.418h-4.242c-0.971,0-1.703-0.343-1.703-1.43v-2.103
	c0-0.274-0.171-0.367-0.823-0.367v-0.389l1.829-0.079v2.984c0,0.605,0.274,0.926,0.766,0.96h2.995
	c-0.583-1.613-1.52-3.167-1.52-4.036c0-0.377,0.194-0.651,0.652-0.651h0.399c0.664,0,1.155,0.137,1.624,1.258
	c0.137,0.332,0.411,0.938,0.652,1.52c0.343,0.778,0.629,1.854,1.497,1.91h0.492v0.423h-0.275
	C35.881,28.421,35.321,28.101,35.024,27.404 M31.365,30.044c0,0.309-0.24,0.572-0.571,0.572c-0.355,0-0.584-0.264-0.584-0.572
	c0-0.331,0.229-0.582,0.584-0.582C31.125,29.462,31.365,29.713,31.365,30.044 M33.023,30.044c0,0.309-0.252,0.572-0.583,0.572
	c-0.343,0-0.583-0.264-0.583-0.572c0-0.331,0.24-0.582,0.583-0.582C32.771,29.462,33.023,29.713,33.023,30.044"/>
<path fill="#636363" d="M44.638,27.998v0.423h-7.831v-0.423h5.247c-0.034-2.583-0.937-3.944-1.863-3.944
	c-1.018,0-1.681,1.006-2.035,2.184l-0.469-0.857c0.171-0.091,0.286-0.183,0.457-0.446c0.4-0.65,0.938-1.28,2.081-1.28
	c1.818,0,2.926,2.229,2.961,4.345H44.638z"/>
<path fill="#636363" d="M51.234,27.997l-0.263,0.424h-6.539v-0.424h5.247c-0.034-2.583-0.937-3.942-1.863-3.942
	c-1.017,0-1.681,1.005-2.035,2.183l-0.469-0.857c0.172-0.092,0.286-0.183,0.457-0.445c0.4-0.652,0.938-1.281,2.081-1.281
	c1.818,0,2.927,2.229,2.961,4.344H51.234z M48.342,30.033c0,0.331-0.275,0.583-0.595,0.583c-0.32,0-0.594-0.252-0.594-0.583
	c0-0.343,0.274-0.595,0.594-0.595C48.067,29.438,48.342,29.69,48.342,30.033"/>
<path fill="#636363" d="M52.753,21.904c0-0.263-0.011-0.344-0.492-0.503l1.498-0.285v7.305h-1.006V21.904z"/>
<path fill="#636363" d="M56.332,24.122c0-0.274-0.012-0.354-0.514-0.515l1.52-0.285v2.847c0,0.617-0.023,1.246-0.126,1.829h1.669
	v0.423h-1.749c-0.274,1.166-0.949,2.058-2.549,2.058c-0.149,0-0.4-0.012-0.823-0.045c1.657-0.446,2.481-1.259,2.572-3.407V24.122z"
	/>
<path fill="#636363" d="M58.664,27.998h0.251c0.641,0,0.903-0.422,0.903-1.099v-4.996c0-0.262,0-0.342-0.502-0.503l1.508-0.285
	v5.819c0,0.96-0.697,1.486-1.668,1.486h-0.492V27.998z"/>
<path fill="#636363" d="M62.345,21.904c0-0.263-0.012-0.344-0.492-0.503l1.498-0.285v7.305h-1.006V21.904z"/>
<path fill="#636363" d="M73.228,26.626c0,1.841-1.132,3.761-3.339,3.761c-2.217,0-3.338-1.92-3.338-3.761v-1.6
	c0-0.275-0.171-0.367-0.822-0.367v-0.388l1.828-0.08v2.435c0,2.641,1.178,3.372,2.332,3.372c1.156,0,2.334-0.731,2.334-3.372v-2.195
	c0-0.263-0.012-0.343-0.504-0.503l1.509-0.286V26.626z M70.336,22.625c0,0.343-0.275,0.594-0.595,0.594
	c-0.309,0-0.584-0.251-0.584-0.594c0-0.332,0.275-0.595,0.584-0.595C70.061,22.03,70.336,22.293,70.336,22.625"/>
<path fill="#636363" d="M75.091,21.973c0-0.275-0.172-0.377-0.823-0.377v-0.377l1.829-0.08v5.899c0,0.605,0.273,0.926,0.754,0.96
	h0.572v0.423h-0.641c-0.972,0-1.691-0.343-1.691-1.429V21.973z"/>
<path fill="#636363" d="M82.888,27.655c-0.332,0.696-1.041,1.258-2.15,1.258c-1.04,0-1.52-0.538-1.862-0.972
	c-0.264,0.285-0.596,0.479-1.201,0.479h-0.457v-0.423h0.469c0.102-0.023,0.297-0.057,0.434-0.171
	c0.344-0.332,0.526-1.019,0.676-1.59c0.273-1.063,0.56-2.115,2.24-2.115c1.383,0,2.125,1.395,2.125,2.447
	c0,0.148-0.01,0.285-0.032,0.412c0.193,0.536,0.594,1.017,1.107,1.017h0.481v0.423h-0.252C83.71,28.421,83.275,28.158,82.888,27.655
	 M80.829,24.488c-0.731,0-0.961,0.822-1.188,1.715l-0.024,0.069c-0.102,0.388-0.205,0.811-0.422,1.223
	c0.023,0.011,0.045,0.045,0.057,0.068c0.298,0.365,0.813,0.948,1.521,0.948c0.721,0,1.338-0.846,1.338-1.886
	c0-1.086-0.399-2.104-1.233-2.138H80.829z"/>
<path fill="#636363" d="M85.379,30.044c0,0.32-0.251,0.583-0.583,0.583c-0.354,0-0.583-0.263-0.583-0.583s0.229-0.572,0.583-0.572
	C85.128,29.472,85.379,29.724,85.379,30.044 M88.362,28.421c-0.583,0-1.075-0.354-1.429-0.892c-0.275,0.686-0.983,0.892-1.692,0.892
	H84.51v-0.423h0.525c0.606,0,0.857-0.4,0.857-1.063v-2.87c0-0.252-0.046-0.297-0.503-0.456l1.509-0.286v2.915
	c0,0.721,0.481,1.761,1.281,1.761h0.64v0.423H88.362z M87.024,30.044c0,0.32-0.24,0.583-0.582,0.583
	c-0.344,0-0.584-0.263-0.584-0.583s0.24-0.572,0.584-0.572C86.784,29.472,87.024,29.724,87.024,30.044"/>
<path fill="#636363" d="M92.593,28.421c-0.583,0-1.088-0.354-1.44-0.892c-0.275,0.686-0.973,0.892-1.693,0.892h-0.846v-0.423h0.64
	c0.606,0,0.858-0.4,0.858-1.064v-5.098c0-0.252-0.046-0.297-0.503-0.457l1.497-0.286v5.145c0,0.721,0.504,1.761,1.293,1.761h0.445
	v0.423H92.593z"/>
<path fill="#636363" d="M92.626,27.998h0.263c0.63,0,0.893-0.422,0.893-1.099v-2c0-0.252,0-0.297-0.515-0.469l1.509-0.274v2.31
	c0.08,0.686,0.503,1.567,1.212,1.567c0.65,0,0.915-0.424,0.915-1.099v-2.459c0-0.239-0.013-0.285-0.516-0.457l1.521-0.285v2.504
	c0,0.721,0.446,1.796,1.235,1.796c0.64,0,0.902-0.424,0.902-1.099v-2.813c0-0.273,0-0.354-0.492-0.515l1.497-0.285v3.612
	c0,0.96-0.696,1.486-1.668,1.486c-0.743,0-1.315-0.423-1.555-0.973c-0.149,0.55-0.869,0.973-1.578,0.973
	c-0.766,0-1.201-0.263-1.59-0.789c-0.25,0.526-0.823,0.789-1.543,0.789h-0.491V27.998z"/>
<path fill="#636363" d="M105.944,28.421c-0.96,0-1.703-0.343-1.703-1.429v-2.104c0-0.274-0.16-0.367-0.813-0.367v-0.388l1.819-0.08
	v2.984c0,0.605,0.286,0.926,0.765,0.96h2.71c0.595,0,0.847-0.436,0.847-1.098v-2.778c0-0.274-0.011-0.354-0.515-0.514l1.521-0.286
	v3.612c0,0.96-0.572,1.486-1.566,1.486H105.944z M106.447,21.606c-0.355,0-0.583,0.264-0.583,0.583c0,0.321,0.228,0.583,0.583,0.583
	c0.331,0,0.572-0.262,0.572-0.583C107.02,21.87,106.778,21.606,106.447,21.606 M108.093,21.606c-0.343,0-0.582,0.264-0.582,0.583
	c0,0.321,0.239,0.583,0.582,0.583c0.344,0,0.583-0.262,0.583-0.583C108.676,21.87,108.437,21.606,108.093,21.606"/>
<path fill="#636363" d="M112.438,21.973c0-0.275-0.172-0.377-0.824-0.377v-0.377l1.83-0.08v5.899c0,0.605,0.274,0.926,0.754,0.96
	h0.571v0.423h-0.64c-0.972,0-1.691-0.343-1.691-1.429V21.973z"/>
<path fill="#636363" d="M115.432,30.044c0,0.32-0.252,0.583-0.583,0.583c-0.354,0-0.583-0.263-0.583-0.583s0.229-0.572,0.583-0.572
	C115.18,29.472,115.432,29.724,115.432,30.044 M118.417,28.421c-0.584,0-1.076-0.354-1.43-0.892
	c-0.274,0.686-0.984,0.892-1.692,0.892h-0.732v-0.423h0.526c0.605,0,0.857-0.4,0.857-1.063v-2.87c0-0.252-0.046-0.297-0.503-0.456
	l1.509-0.286v2.915c0,0.721,0.48,1.761,1.28,1.761h0.642v0.423H118.417z M117.079,30.044c0,0.32-0.241,0.583-0.584,0.583
	s-0.583-0.263-0.583-0.583s0.24-0.572,0.583-0.572S117.079,29.724,117.079,30.044"/>
<path fill="#636363" d="M122.646,28.421c-0.583,0-1.086-0.354-1.441-0.892c-0.274,0.686-0.97,0.892-1.691,0.892h-0.846v-0.423h0.641
	c0.605,0,0.857-0.4,0.857-1.064v-5.098c0-0.252-0.046-0.297-0.504-0.457l1.498-0.286v5.145c0,0.721,0.503,1.761,1.292,1.761h0.446
	v0.423H122.646z"/>
<path fill="#636363" d="M127.516,21.894c-0.057,0.594-1.704,1.475-2.824,1.806c1.304,0.16,2.39,1.212,2.39,2.333v1.965h0.138
	l0.285,0.424h-4.824v-0.424h3.326v-1.931c0-0.847-0.468-2.06-1.771-2.06h-1.052l0.262-0.399h0.275c0.731,0,2.938-1.531,3.029-2.755
	L127.516,21.894z"/>
</svg>
