<svg xmlns="http://www.w3.org/2000/svg" viewBox="0 0 100 100"><defs><style>.a{fill:#cd1496;}</style></defs><title>icon-followers</title><path class="a" d="M50,0A49.76,49.76,0,0,0,28.32,4.93Q26.14,6,24.07,7.24a50.13,50.13,0,0,0-5.88,4.18q-1.85,1.53-3.55,3.23a50.28,50.28,0,0,0-4.71,5.44q-1.44,1.93-2.69,4a50,50,0,0,0-3,46.17q0.46,1,1,2t1.06,2c0.31,0.55.61,1.09,0.94,1.63C8,77.13,8.76,78.3,9.59,79.43l0.34,0.48c0.39,0.52.79,1,1.19,1.52s1,1.26,1.59,1.87l0,0.13h0.15q0.76,0.84,1.55,1.64l0.26,0.28,0.61,0.59c0.95,0.92,1.92,1.8,2.94,2.64a50.13,50.13,0,0,0,5.88,4.18q2.06,1.25,4.25,2.31c1.16,0.56,2.35,1.06,3.56,1.53l0.65,0.24c0.86,0.32,1.72.63,2.6,0.91a50.12,50.12,0,0,0,33-1.15h0A50,50,0,0,0,84.74,85.94l0.88-.86q0.79-.81,1.55-1.64l0.11-.13q0.82-.92,1.59-1.87t1.54-2A50,50,0,0,0,93.7,74.3q0.55-1,1.06-2t1-2A50,50,0,0,0,50,0Zm0,96A45.82,45.82,0,0,1,18.83,83.79L19,83.43a17.22,17.22,0,0,1,.89-2,20.6,20.6,0,0,1,1.2-2,24.18,24.18,0,0,1,2.14-2.72,15.27,15.27,0,0,1,5.34-3.45c0.47-.2.95-0.39,1.43-0.56,1.45-.53,2.93-1,4.32-1.32,0.69-.18,1.36-0.34,2-0.49l2.51-.56,0.66-.15,0.7-.17,0.27-.08a1.79,1.79,0,0,0,.35-0.14l0.08-.06a7.59,7.59,0,0,0,.3-2c0-.62.08-1.32,0.12-2s0.06-1.38.08-2c0-.89,0-1.7.06-2.28a10.12,10.12,0,0,1-1.11-1.4,12.34,12.34,0,0,1-1.18-2.23c-0.17-.41-0.32-0.84-0.46-1.3a19.28,19.28,0,0,1-.6-2.68c-0.09-.57-0.16-1.17-0.21-1.8h0a0.23,0.23,0,0,1-.13.07l-0.23,0a3.17,3.17,0,0,1-1.92-.62,3.78,3.78,0,0,1-.17-0.54c-0.07-.25-0.14-0.57-0.21-0.93s-0.15-.77-0.23-1.2c-0.23-1.29-.46-2.8-0.58-4,0-.4-0.07-0.75-0.08-1.06a4.37,4.37,0,0,1,0-.72,1.42,1.42,0,0,1,.27-0.65,1.88,1.88,0,0,1,.52-0.47,2.62,2.62,0,0,1,1.34-.38,1.75,1.75,0,0,1,.47.06,0.94,0.94,0,0,1,.36.18h0c0-.63-0.06-1.26-0.08-1.91,0-.34,0-0.69,0-1.06s0-.71,0-1.08,0-1,.06-1.55c0-.12,0-0.23,0-0.35s0-.45.06-0.68A15,15,0,0,1,37.75,33h0q0.15-.54.34-1.07t0.43-1.06q0.24-.52.52-1A12.31,12.31,0,0,1,41.19,27a11.22,11.22,0,0,1,3.09-2.13A13.35,13.35,0,0,1,50,23.64a11.9,11.9,0,0,1,11.48,7.17,14.61,14.61,0,0,1,.77,2.14,14.86,14.86,0,0,1,.49,2.79c0,0.12,0,.24,0,0.35a48.27,48.27,0,0,1,0,5.6h0a1.29,1.29,0,0,1,.83-0.24,2.56,2.56,0,0,1,.68.1l0.34,0.12a2.23,2.23,0,0,1,.6.38,1.5,1.5,0,0,1,.51.91,37.41,37.41,0,0,1-1.26,8.44,3.09,3.09,0,0,1-1.9.62,0.48,0.48,0,0,1-.39-0.11c0,0.64-.12,1.24-0.21,1.82a17.89,17.89,0,0,1-1,3.9l0,0.07a12.82,12.82,0,0,1-.55,1.19,11.94,11.94,0,0,1-.62,1,10.12,10.12,0,0,1-1.11,1.4c0,0.58,0,1.39.06,2.28,0,0.66,0,1.36.08,2s0.07,1.42.12,2c0,0.1,0,.21,0,0.31,0,0.36.06,0.68,0.1,1a4.6,4.6,0,0,0,.11.62,0.61,0.61,0,0,0,.06.16c0.44,0.66,13,1.9,17.64,7a24.18,24.18,0,0,1,2.14,2.72l0.17,0.25q0.3,0.46.56,0.89t0.47,0.85a17.22,17.22,0,0,1,.89,2l0.13,0.36A45.82,45.82,0,0,1,50,96ZM92.63,67.24c-3.29-2.28-7.77-3.4-10.76-4.06,0-.53,0-1.16-0.07-1.9a14.65,14.65,0,0,0,2.27-5.38,4.31,4.31,0,0,0,1.82-2,27.69,27.69,0,0,0,1.29-8.71A5.23,5.23,0,0,0,85,41.75q0-.67-0.05-1.42a14.83,14.83,0,0,0-3.34-8.69A13.09,13.09,0,0,0,71.17,27a14.8,14.8,0,0,0-4.55.68,20,20,0,0,1,.82,1.85c0.24,0.62.43,1.26,0.61,1.91A10.84,10.84,0,0,1,71.17,31c6.85,0,9.57,5.41,9.8,9.56a37,37,0,0,1,0,4.29,1,1,0,0,1,.63-0.18,1.59,1.59,0,0,1,1.63,1.15,28.71,28.71,0,0,1-1,6.47,2.43,2.43,0,0,1-1.47.48,0.37,0.37,0,0,1-.28-0.07c-0.27,3.48-1.35,5.79-2.73,7.22,0,1.71.15,6,.42,6.45S86.91,67.68,90.93,71A46.14,46.14,0,0,1,85.65,79l-0.34.41q-0.53.64-1.09,1.26c-0.18-.4-0.4-0.83-0.62-1.26A26.51,26.51,0,0,0,79.76,74c-4.07-4.47-12-6.34-16.57-7.35l-0.39-.09c-0.05-.92-0.11-2.18-0.15-3.84a15.71,15.71,0,0,0,1.74-3,20.36,20.36,0,0,0,1.36-4.4,4.61,4.61,0,0,0,2.35-2.24c0.69-1.5,1.9-8.48,1.58-10.67a5.68,5.68,0,0,0-2.83-4.07c0-.75,0-1.56-0.08-2.44a18.94,18.94,0,0,0-.58-3.67,18.67,18.67,0,0,0-.6-1.94,18,18,0,0,0-.82-1.85A15.82,15.82,0,0,0,50,19.64a15.82,15.82,0,0,0-14.77,8.78,18,18,0,0,0-.82,1.85,18.68,18.68,0,0,0-.6,1.94,18.94,18.94,0,0,0-.58,3.67c0,0.89-.07,1.71-0.08,2.46a5.54,5.54,0,0,0-2.82,4.05c-0.31,2.19.9,9.17,1.58,10.67a4.61,4.61,0,0,0,2.33,2.23,20.36,20.36,0,0,0,1.36,4.4,15.7,15.7,0,0,0,1.74,3c0,1.66-.1,2.92-0.15,3.84l-0.39.09c-4.6,1-12.5,2.88-16.57,7.35a26.51,26.51,0,0,0-3.85,5.41c-0.23.43-.44,0.85-0.62,1.26q-0.56-.62-1.09-1.26L14.35,79A46.14,46.14,0,0,1,9.07,71c4-3.28,12.42-4.13,12.73-4.61s0.39-4.73.42-6.45c-1.38-1.43-2.46-3.74-2.73-7.22a0.37,0.37,0,0,1-.28.07,2.43,2.43,0,0,1-1.47-.48,28.71,28.71,0,0,1-1-6.47,1.59,1.59,0,0,1,1.63-1.15,1,1,0,0,1,.63.18,37,37,0,0,1,0-4.29C19.26,36.39,22,31,28.83,31a10.85,10.85,0,0,1,3.12.44c0.18-.65.37-1.29,0.61-1.91a20,20,0,0,1,.82-1.85A14.8,14.8,0,0,0,28.83,27a13.09,13.09,0,0,0-10.45,4.66A14.83,14.83,0,0,0,15,40.33q0,0.75-.05,1.42a5.23,5.23,0,0,0-2.16,3.49,27.69,27.69,0,0,0,1.29,8.71,4.32,4.32,0,0,0,1.82,2,14.65,14.65,0,0,0,2.27,5.38c0,0.75,0,1.38-.07,1.9-3,.67-7.47,1.78-10.76,4.06A46,46,0,1,1,96,50,45.74,45.74,0,0,1,92.63,67.24Z"/></svg>