<?xml version="1.0" encoding="utf-8"?>
<!-- Generator: Adobe Illustrator 19.2.0, SVG Export Plug-In . SVG Version: 6.00 Build 0)  -->
<!DOCTYPE svg PUBLIC "-//W3C//DTD SVG 1.0//EN" "http://www.w3.org/TR/2001/REC-SVG-20010904/DTD/svg10.dtd">
<svg version="1.0" id="Layer_1" xmlns="http://www.w3.org/2000/svg" xmlns:xlink="http://www.w3.org/1999/xlink" x="0px" y="0px"
	 viewBox="0 0 456.3 456.3" style="enable-background:new 0 0 456.3 456.3;" xml:space="preserve">
<style type="text/css">
	.st0{fill:#F7F7F7;}
</style>
<title>Instagram-icon</title>
<path class="st0" d="M228.1,41.1c60.9,0,68.1,0.2,92.2,1.3c22.2,1,34.3,4.7,42.4,7.9c19.9,7.7,35.6,23.4,43.3,43.3
	c3.1,8,6.8,20.1,7.9,42.4c1.1,24,1.3,31.2,1.3,92.1s-0.2,68.1-1.3,92.2c-1,22.2-4.7,34.3-7.9,42.4c-7.7,19.9-23.4,35.6-43.3,43.3
	c-8,3.1-20.1,6.8-42.4,7.9c-24,1.1-31.2,1.3-92.2,1.3s-68.1-0.2-92.2-1.3c-22.2-1-34.3-4.7-42.4-7.9c-19.9-7.7-35.6-23.4-43.3-43.3
	c-3.1-8-6.8-20.1-7.9-42.4c-1.1-24-1.3-31.2-1.3-92.2s0.2-68.1,1.3-92.2c1-22.2,4.7-34.3,7.9-42.4c3.6-9.9,9.5-18.9,17-26.2
	c7.4-7.6,16.3-13.4,26.2-17.1c8-3.1,20.1-6.8,42.4-7.9C160,41.3,167.2,41.1,228.1,41.1 M228.1,0c-62,0-69.7,0.3-94.1,1.4
	S93.2,6.4,78.7,12c-15.2,5.7-29,14.7-40.4,26.3C26.7,49.7,17.7,63.5,12,78.7c-5.6,14.5-9.5,31.1-10.6,55.4S0,166.1,0,228.1
	s0.3,69.7,1.4,94.1s5,40.9,10.6,55.4c11.9,30.6,36.1,54.9,66.7,66.7c14.5,5.6,31.1,9.5,55.4,10.6s32.1,1.4,94.1,1.4
	s69.7-0.3,94.1-1.4c24.3-1.1,40.9-5,55.4-10.6c30.6-11.9,54.9-36.1,66.7-66.7c5.6-14.5,9.5-31.1,10.6-55.4
	c1.1-24.3,1.4-32.1,1.4-94.1s-0.3-69.7-1.4-94.1s-5-40.9-10.6-55.4c-5.7-15.2-14.7-29-26.3-40.4c-11.4-11.6-25.2-20.6-40.4-26.3
	c-14.5-5.6-31.1-9.5-55.4-10.6C297.9,0.3,290.1,0,228.1,0"/>
<path class="st0" d="M228.1,111C163.4,111,111,163.4,111,228.1s52.4,117.2,117.1,117.2s117.1-52.4,117.1-117.2l0,0
	C345.3,163.4,292.8,111,228.1,111 M228.1,304.1c-42,0-76-34-76-76s34-76,76-76s76,34,76,76S270.1,304.1,228.1,304.1"/>
<path class="st0" d="M377.3,106.4c0,15.1-12.3,27.4-27.4,27.4c-15.1,0-27.4-12.3-27.4-27.4c0-15.1,12.3-27.4,27.4-27.4
	C365,79,377.3,91.2,377.3,106.4L377.3,106.4"/>
</svg>
