<?xml version="1.0" encoding="utf-8"?>
<!-- Generator: Adobe Illustrator 19.2.0, SVG Export Plug-In . SVG Version: 6.00 Build 0)  -->
<!DOCTYPE svg PUBLIC "-//W3C//DTD SVG 1.0//EN" "http://www.w3.org/TR/2001/REC-SVG-20010904/DTD/svg10.dtd">
<svg version="1.0" id="Layer_1" xmlns="http://www.w3.org/2000/svg" xmlns:xlink="http://www.w3.org/1999/xlink" x="0px" y="0px"
	 viewBox="0 0 450 365.6" style="enable-background:new 0 0 450 365.6;" xml:space="preserve">
<style type="text/css">
	.st0{fill:#F7F7F7;}
</style>
<title>twitter</title>
<path class="st0" d="M141.5,365.6c169.9,0,262.7-140.7,262.7-262.7c0-4,0-8-0.3-11.9C422,77.9,437.6,61.7,450,43.2
	c-16.9,7.5-34.7,12.4-53,14.5c19.3-11.5,33.7-29.7,40.6-51c-18.1,10.8-38,18.3-58.6,22.4c-35-37.2-93.4-39-130.6-4
	c-24,22.5-34.2,56.2-26.7,88.2c-74.2-3.7-143.4-38.8-190.3-96.5C6.8,59,19.3,113,59.9,140.1c-14.7-0.4-29.1-4.4-41.9-11.6v1.2
	c0,43.9,31,81.8,74.1,90.5c-13.6,3.7-27.9,4.2-41.7,1.6c12.1,37.6,46.8,63.4,86.3,64.1c-32.7,25.7-73.1,39.6-114.7,39.6
	c-7.3,0-14.7-0.5-22-1.3C42.2,351.3,91.3,365.6,141.5,365.6"/>
</svg>
